<mxfile host="app.diagrams.net" agent="Mozilla/5.0 (Macintosh; Intel Mac OS X 10_15_7) AppleWebKit/537.36 (KHTML, like Gecko) Chrome/129.0.0.0 Safari/537.36" version="24.7.17">
  <diagram name="Page-1" id="s-63UCfBwvUF5NDCxKWi">
    <mxGraphModel dx="954" dy="555" grid="1" gridSize="10" guides="1" tooltips="1" connect="1" arrows="1" fold="1" page="1" pageScale="1" pageWidth="850" pageHeight="1100" math="0" shadow="0">
      <root>
        <mxCell id="0" />
        <mxCell id="1" parent="0" />
        <mxCell id="Q-PvTwAetlPs6teonqhd-2" value="" style="shape=image;verticalLabelPosition=bottom;labelBackgroundColor=default;verticalAlign=top;aspect=fixed;imageAspect=0;image=data:image/png,iVBORw0KGgoAAAANSUhEUgAAAgAAAAIACAYAAAD0eNT6AAAABHNCSVQICAgIfAhkiAAAAAlwSFlzAAAOxAAADsQBlSsOGwAAABl0RVh0U29mdHdhcmUAd3d3Lmlua3NjYXBlLm9yZ5vuPBoAACAASURBVHic7N13fBR1+sDxz+4mm15IIRAg9N47SBFQUVFARbH3hhX7nXqc2O5sZ9f7Wc92nuVQ6UUQEKX3ElooCSUQkkB6skl2fn8MeBYg39md2d3sPu/Xi9d553dmniObnWe+8/0+jw0hRFDSbpnctMamTQRtlA1aAi5gq83Gf+0V5f9n+/SlMn/HKITwH5u/AxBCmK/mlknXYbP9HxB10gE29rlt9kuc70xe7dvIhBCBQhIAIYJMzW1/vQyNL6n797uk1m0/I+KDyZt9EZcQIrDY/R2AEMI82o2PpqLxPmrJfZzD7v5QkwcBIUKSJABCBBF3ePgEIN7AIX1rbpl8plXxCCEClyQAQgQRTWOkB0eda34kQohAJwmAEMGlmdEDbJBhRSBCiMAmCYAQQUSDCg8OKzc9ECFEwJMEQIggYkMzvKLfZjN+jBCi/pMEQIhgojm+NHiEy15T+40lsQghApokAEIEEUdTvgFWqI7XsL1u+9ez+ywMSQgRoCQBECKI2CZPdjs0+6XA3rpHa/PCbLmPWR2TECIwSQIgRJCxvT95v6Omuh/wNaCdZEiFpvGso4njAtu771b7ODwhRICQCmBCBDHt5slt3I7aUW7N1gpsVTablunAPtP27uR8f8cmhBBCCCGEEEIIIYQQQgghhBBCCCGEEEIIIYQQQgghhBBCCCGEEEIIIYQQQgghhBBCCCGEEEIIIYQQQgghhBBCCCGEEEIIIYQQQgghhBBCCCFEoLH5OwAhTsEBpB7/0whIBuKBBCD2V38aHB/vBGJOca4ywAW4gSKgEjh6/E/hr/7zIHAAqDb9/40QQgQYSQCEPziAdKA50PL4f5740xj9pt8Q/3w+3cAhIBvYD+wFtgGbj/9nsR9iCnoTM6v+466uffiN7tH7/R2LEKEizN8BiKCWBHQAOgLtf/XPzYFwP8Z1Onb05CT9FP8+B9gKrAKWAyuAfN+EFpwe2abFudyuS+zOsB+A9/wdjxChQhIAYQY70BbodfxPT6Ab+pN8sMk4/ufcX/1vO9GTgR+AOegzCEKRS3OdAzhtmnYekgAI4TPyCkB4wgH0BoYAQ4HB6E/7AjRgA3oiMBv4Cf21gjiFiVurPrRp3AgU2+KcjV5pZqvwd0xChAJJAISqZGAEcDYwBn1hnqjbQeC/wNfAz+gJgjjurq1acrjmyub4Ak5Ns014rbPzHT+HJURIsPs7ABHQUoDbgAXAYeCr4/9dbv7q0oF7gSXADuAv6AscBRDudt3Dr3Zv2GzaA5M1Tb6XhPABmQEQv+dEf8K/ERiJrBOxQhXwJfAGsNrPsfiNvvivahfYfrNWRLNx6WsdI6b4Ky4hQoVk2uKEdsA/0Le+fQ2MQm7+VokArkPfSbAEGO7fcPyjyl313O9v/gA2jdfvW6cl+iMmIUKJJABiMPrUfibwAMG5cj+QDUbfPfAT+oLKkHDf1uqBNmwTTvGv07WIqmd9GpAQIUheAYQmO3Ax8Dj6lr2AFBERQWRkFJFRkURGRhEeHo7TGYHTGU54uJPw8HAcDgfh4eHYbPpHOdzpxParj3VtbS21tTUAuDWN6upqql0uXC4X1dUuqqurqayooLyigorycioqyqmtrfXL/9/jvgHuA/b5Mwgr3b9FS9JsruXoW0dPxe1GG/16p8hZvopLiFAjCUBosQOXoi9E6+rPQMLCwoiJjSU2No7YmFhiYo//iY4hKjqKyMgo7Hb/TFBVVVVRWlpCSXExRUVFlBQXUVxSTNGxY7jdPtnRVwpMQl8j4NdsxGyTt2jOY/bq2WjaCIXh5TbNNvyVzs6VlgcmRAiSBCB0nAW8iI+f+KOjY4hPSCAhPoGExATi4hNISEgkKirKl2GYora2lqNHCyksKKCgIJ/8/CMUFxVZecm1wA3AJisv4iuXaZojfavrMxtcYeCw3Bq7e9CbHaL2WBaYECFKEoDg1wn9xj/K6gvFxsWRmtqQpKQkGiQlk5SURHi40+rL+lV5eRmHcnM5dCiXQ7kHqagwvYZNOXA38C+zT+xLd27RYp1217/RGGP0WA0O2TXbWJkJCFqR6HVGUtAXHoejN/oCvTFX6fF/LgaOAMd8HWCwkgQgeMUCTwATsajufnRMDOnpTUhr1IiGDRsRHR1txWXqDU3TyD+SR3b2XnKys6moKDfz9B8Dd6InBPXKg5kVzWuxT0MvD+2pCk3j+tc6R3xtVlzCZ8LRe4F0Rd9t9OsGYA05dRfPU6kBCtA7d+49/mc3esOujejdPYUCSQCC06XAK0BTs0+cnJxCRvPmpDdpSmJig7oPCFGapnEkL4+dO7eTk5ON25yFhWuB84E8M05mtcmaZi/aVn2Lpmkvordy9poNZuConfBK++gDZpxPWKIVMAg4A+gPdEavL+IrOcA69MqbS9FrbVT58Pr1hiQAwaUh8DYwzsyTxick0LJVa1o0b0lsXJyZpw4JVZWV7Nq1kx07tlNWWlr3Aae3A71AU7b3kVnn/i3VQzSb+yWgn9nntsFRDW2SLS7iQ+kbEBASgHOA847/aeLfcP6gEr3exon+HFv9G07gkAQgeIwH3sSkffxhYWE0b96S1m3aktpQKteawe12s3t3Fps3bqSszKtEYD96N8JMcyIzx+Q9WuSxyuor0LR70LtCWq3ABu/bcf/zH52iAjohCkJJwCXo3zvDqV9Fw3aj1z75Cn2mIGRJAlD/xaLf+K8342TRMTG0b9+RNm3b4XQG9wI+f3G73ezK2snGDeuprPT4AbYAvXCQX5OAiduqutk1RmmabQRogwF/bO/QgC1gW6Bp7h8a5EXMmjzcVuOHOIJdGHAhcAv6LJQla4t8bAf6+pp/Abl+jsXnJAGo33oAX6AvsPFKbFwc3br1oHmLln7bfx9qXC4X69etJWvndjTNoyaB2cAA4JC5kambmFn1JxvczOmL+vjKMWARVc4bX+1pk5Xi5mkC3IHeHyTdz7FYpQaYgf4KdT4h0rVTEoD662bgLfS68h6Ljo6mS9futG7TVm78flKQn8/yZT9z7JhHi5dXA8OAMlODMuieDeVNw5xhZ2ma+0awnemzC2vsx8a7Nrtt9v724eu+ttmCqnCSn3UD7kLvWxHp51h8aSP6d+sn6OsHgpYkAPVPOPoK/7u8OUlERCSdu3SlXfsOOBwOcyITHqupqWH1qhXsytrpyeHTgYsAn5QprMsDm13d3XbtXvQbhzXvhm2ssrl5qazC+e27fWzVllwjdPUCngIu8HcgfrYPeBb4EL0eQdCRBKB+SQGm4EXTGLvdTqfOXejUuSvh4cHwCi+47N69i1UrllFTY/gV9iPoBZ8CxgObXd1r7dr/2fTXFGY5ZkObnNAx4o3JNltAJDxBpBPwNHqfELk3/M8e4EngUwIkyTaL/JDrj1bALLx435+SmsqAAYNISJROq4EsP/8Ii36YT1WVoa3LVehb7jZaE5VnJmua/djWqnvB9gLeLhrTmK65q299rWvsYXOiE8clA5OBCfhhNb/DbicpOpbkmDiinU7C7A5iI/Q3DtW1NZS5qqh1uykoK6WwvJRyl9+29K9Db9T1o78CMJskAPVDP/RpXo/244WFhdG1W3c6duryS9c8EdiKjh1jwfx5RqsJbkD/rLisicpz92dWnq1h+xrwKPu02Wyv7+8Q/oC84zeVHX1x31Po2/osExEWTqdGTenSuBmdGjWlZXJDmiel0qxBMqmxxmpEVVS72H+sgOzCI+wtzGdH3kE2Hcxh08EcjpQWW/T/4De+Au4HDvriYlaSu0HgGwl8C3hUZ7dp02b07T+A6Gij1TaFv5WUFDN3ziyqKg2tQ3oGvZNgwLlvU1VH7MzDZqhCpQbaPa92inzLssBCUyfgPfRqfaZLjY1nWNvODGzRloEt29OtSQZhduvXGh0sKmTpnh0s27ODn3ZtY8PBbE932NSlCPgT8C71eMeAJACBbQx6tml4pb/D4aBv/wG0bh0Iu7OEp44cyWPB93OpVS8lXIleb32fdVF57v4tVZ01Gz+hOBNg03j8lc4Rf7M4rFDiAB5Fbwnu1Q6i3+vRpAVjuvbh3I7d6dWsFfYAmG08XHKMOVs3MCdzPbMz11FRbfrk2I/o2yN3m31iX/D/T0icynjgMzx4bxoXF8+QM4fRoIGls3rCR7L37uGnJYuNHPIBerGWgHTf1ophaPY51HkD0t5/tVPkrT4JKjS0RP9OMe2pv21qY67uM5hLew6gbWpjs05ridKqSmZuWcuXa5cyd+sGatymvU0qBu5B3zZYr0gCEJguRn/yN7wgp1mzDAYOGhz0bXhDzZrVK9m2VbnoXw1657Vt1kXknfu2Vj2Kxqmf7G1sKC9z9pUtfqa5CvgnJjRlcjrCuKR7f24eOJwhrTvWy3VFuUVH+XjlYj5Y9gM5R/PNOu2XwG3oCUG9UP9+csHvPGAqBrtn2Wx2evTsRafOXayJSvhVbW0ts2ZMo7i4SPWQ/wKXWRiSVyYv1MKK0lzLNeh9kn9d47bZBrze0bnG54EFnzD0dSF/8vZE8ZFRXNvvTB4cfiFNEoNjdtGtaczOXMcL86eyfK9HNTh+bwd6M7bNZpzMapIABJYhwFwM1lMPDw9n6LARNGoU2FNwwjv5+UeYN2eW6qKmWqAFeuOggHRfpqsXaCvR30v/j42XXu0Y8bB/ogoqjYCvgcHenCQpOpb7h1/AnUPO/WV7XjBauGMzT875L8v27PD2VCXADcA3XgdlMUkAAkcH9P7VhlJrZ0QEw0ecTUqKKU0ARYBbsXwpWTuVv6D+il7YJWDdt7XqazQu/dX/VF5tc2a81dFW4LeggkNnYCbQ3NMTRDsjuH/4Bdw37ALiI/3R48k/5m5dz+MzvmDTwRxvTqOhL7Z83pyorCEJQGBIBZYCbYwcFBMTy4izzyE+PsGaqETAqagoZ+q3U1R3BexDX/gVsHvnJ2529bXZtZUn/rvNZnv9lY7Oif6MKQiMQK8Y6mnNBS7p3o/nxlxNRoMUcyOrJ9yaxuerf+LR6Z+TV6L82u1kPkQvsBSQa1kkAfC/KGAx0NfIQYmJDRhx9jlERXlUHkDUY2tWrWTbNuUFgeehv1YKWPdlVi4B22DAbQvT2r7SLrJebqkKEJehr/T3aBVwu4aN+efltzK4VQdzo6qnjpaX8edp/+bjlYu9qScwHX1XV8A1FpL2b/73DgZv/impqZxz7vly8w9Rnbp0wWZT/tUdb2UsptD46vg/rZKbv1euB/6DBzd/h93OI2ePZdXDz8nN/1caRMfwzhW3MeeOx2iZ7FEhVoDR6ElAwFVjkwTAvx4ErjVyQGJiA4aPOAenU7b5haqoqGjS05Xbso+0MhYz2MKZCYDGHD+HUp/djj7dbLjcXnpCEnPv/AtPX3A5kWHSIOxkhrXtzKqHn+O6fh73YTsbfSYuzryovCcJgP+cicEFIrFxcYw4e6Tc/AWt2ihXeGyKXvY1YB1/6s/Cbg/oVxUB7Ab0Pf6Gv8/P6dCNlQ/9jSGt5am/LnERkbx35QQ+v36ip4siB6HPBATMikpJAPwjFfg3BrL1qKgozjp7JFFRAfPZEX7UtGkznBHKlVwDfhbA4WD0qx3Clvs7jnroEvSa/obWc4XZHfzl3HFMu+1PhpvxhLpxPfqz7IFn6dy4mSeHn4le58XUMsyekkWAvmcDZgCjVA8ID3dyzrnnSWlf8RtLflxETvZelaEzgQutjUb4wUj07xJD8/apsfF8ceN98q7fS6VVldz477eZtmm1J4d/CVyJnxsJWd+eSfzefeh1o5U4HA6Gn3WO7PMXf+CqquLAAaU6P9HAKxaHI3yrMzAbgwvLMhqkMO+uv9CzaUtrogohzrAwxnXvT15pEWv37TF6eBf0WYAF5kemThIA32qPXplLOWPv138gzTI8ruUhgpjT6WT7tq0qQ+OBV4EqayMSPpIOLALSjBzUuXEzvr/rL7TwfDW7+B27zcaozr2o1dz8tMtw643BQC7gt5LXkgD4jgOYhl6YRUmr1m3o3qOndRGJei0iIoKsndupqalRGT6VAC4LLJSFo7/SMdT0o1/zNsyc8ChpcR7VBhJ1GNa2M6mxcczbtsHonP756C2Fs62Iqy6yCNB3HgAGqA5u0CCJfv0HWhiOCAbxCcpVIAN6J4BQ9ib6anJl53Xswdw7HyclJqB2oAWdCYNH8vG1dxNmN/RcHQZ8gT6r43OSAPhGBvCE6uDwcCdDzhyGwyETNOL0DJSBbm9lHMInbkJvN6tscKsOfHHjfUQ7A2LRedAb33Mgb19+i9EWySeaNvm8CIPcYXzjI6Cb6uDBQ4aS2tDQ6z0RokpKSsg9eEBl6A701wCifmoDfIeBKn+dGzdj5oRHiQuhRj6BoEeTFkSGOflhh6GOwM3QH8h/sCaqk5MZAOuNAi5SHdy2XXtZ9CeUxcTGqg5tYGUcwlJh6HVDlH/YTROTmXbbIzSIDrjqsyHhobNGM3GY8k7vEx4FhlsQzilJAmCtMOBF1cFRUVH06NnbwnBEsHGGKz8QShGJ+utJoJ/q4NTYeObc+RhNE5MtDEnU5fkxV3Nlb0PLNezos8U+a+8a5qsLhajbMbD4qm//gVLmVxgS7lR+bSgzAPVTL+AR1cHhDgdTbnmItqmNPb7gmn27mZ25jt35eeSVFlHrdnt8rvouISqaJglJnNmmE+d06EaUesKNzWbjvSsnkHM0n593b1c9LAO9RPwED8I1TCoBWicB2Ile9rdOGc1bMGToMEsDEsGntKSEqd9NURmaD9wJFAE5wG7AZWFownthwHJAeVrwhbHXeDL1DMCmgznc/81HLDG+nz0kpMUl8uSo8dw4YJih4w4cK6TfS4+SX1aieoiG3jzI8vUA8grAOvejePN3RkTQp29/i8MRwchAP4AU4Cv0jmRbgXJgJfACBqaXhU89gIGb/wWde3Hvmed7dKGZW9Zy5mtPyM3/NA6XHGPCl+8y4ct3cWvqu/2bJCbxwVV3GNkZYENv7mT51g3ZBWCNRPS+3JEqg/v2G0DDNFn1L4xzOBxs27oFt/FpWjvQBH1P+a3AePRKgZuA0J3zDRxp6FvDlG4CTROTmX77nz3a7rd23x7GvvsC5dUyIaRi/f691NTWMrydei2mNqmNKHe5WLZnh+ohyUAZ8JMHISqTGQBrTERPAuqU2KABrVq3sTgcEcxMahLVCXgfyMRAoyphmRfQSzjXKczu4NPr7iE5RnmTwC80TeOur9+nQm7+hry4YBobDhgr3vfUBeMZ1MpQOY7HAc8XcyiQBMB8cegNf5T06NHLaNEIIX4jo3kLM0/XFr3U7LsY2HYmTNUXuEZ18F/OvYQzWrbz6EILdmzypJFNyHNrGq8tmmXomDC7g4+uuYsY9VmaWOBZo7EZIQmA+W5F8ek/OSWFJk096iktxC9atW5DVJTpxV5uBZYBTc0+sajT31H8bu7SuBkPnTXG4wtN37zW42ND3azMtYbWAoDejfHRkRcbOeQ6oKOhixggCYC5HBho9duzVx8LQxGhIjw8nF69+1px6i7ojUraWnFycVLDgLNUBjrsdt654jbCvSgZvj3voMfHhrqj5WXklRQZPm7isFF0SGuiOtyBXgfCEpIAmOsSoIXKwMbpTUhLa2RtNCJktGjZik6du1px6pboOwdklapvTFYdePOAEfTJaO3VxQrVt6aJkzCwte8XTkcYb152s5FXv5cCPQxfSIEkAOa6U3Vgjx69rIxDhKCevXrTq3dfbDbTf61bAtOBaLNPLH5jGHCmysD4yCgmnTfO6wsanMEWv+PWPNswM6R1B67odYbqcBt6mWDTSSVA87RF8Ze3YVojkpKlTKcwX8dOnWncOJ3169dy8MB+NPO+4fsCbwA3m3VC8QcPqA58bOTFNIzzWcVYzpr8FgnNWvnsev62YPKdFFm8OPL5sVczY/MaSqoqVYaPQ0/ETQ1KEgDz3IxiZcX27TtYHIoIZYkNGjBs+FlUVlZw4MB+SktKKC8vp6qykrKyMoqKjnmaGNwEfAvMMDdigd6u+QKVgY3iE5kweKTF4fzumt37kdpeuaFpveeMjrP8Gmlxidw55Fyen6/UpNOBvrtsopkxSAJgDgdwvcrAqKhomjbLsDgcISAyMorWrf+4fq+qspLs7L1kZm6mrLTU6GnfRV8cWGhCiOJ/JqL4SvbRkRcbqkkvAtf9wy/knZ+/51hFucrwm4BJQLFZ15c1AOYYASit6Gvbrj12u/y1C/+JiIykXfsOjBl7CZ06dzFah6Ix8JhFoYWqGOBqlYHpCUncNMCnHWOFhRpEx3DX0PNUh8cCV5l5fbkTmeNKlUF2u502bT0r2CGE2ex2Oz179WHI0OFGk9K7kPoAZroCxap/9ww9D6dDJm6DyR2DRxqZ0bnFzGtLAuC9CECpskOzjOZWFGwRwivNMjIYeuZwIzMBkcATFoYUapS+1OMiIrlp4AirYxE+lhobzzV9h6gO743eItoUkgB472wUK/+1biP1VERgatK0Gd26G9pqfAOQbk00IaUVMEBl4NV9h5IYJTsxg9Hd6q8BwMTXAJIAeE9p5W5kZBSNGlna10EIr3Tu0o3Uhsr1fsIweToyRF2uOlDe/QevDmlNjPRzGI/ijrO6SALgPaXOac1btJCmPyKg2Ww2+vcfaGQ9wC1IS3FvjVcZ1K95G7o3aW51LMKPDLzeaQYMNOOakgB4pxug9FuZkSG/vCLwJSQmGmlP3QxpHeyNliiWeL2m71CLQxH+dkn3/kY6BRrqKHQqspzUO+eoDHI6naQ2bGh1LEKYonOXruzKykJTK3N6JXqZYGHc+SqDHHY7l3TvZ3Usp/XD5LsJj47xawy+dGzfbp9fM8YZwajOvfh63TKV4ecDD3t7TUkAvKNU+jc9vakV9dmFsERsbBwZzZuTvVep6uj5QDhQbW1UQUkpARjWtjOpsUq7BC2Tu2GFX68fKi7rOUA1AegMZAA53lxP7kqecwBKezfSmyi3fhQiIJysguApJKL4eyB+IwJQWtU3tqslrZ71IMLkGdAbkWHmVmQc2aG7kZoA53p7PUkAPNcNxe1/aY2k7a+oXxo1bkx0jPKU7xgrYwlSfdArANZpZAfravA3ilf6ChOn0Dihganniwp3MqR1R9XhSjPQpyMJgOeUXsrFxsURHULvzkRwsNlsZDRTXriqNJUtfmOQyqAOaU1omWzd+qEzWra37NzBrlt6c+IiIk0/73kdu6sOVfoMnY4kAJ7rrTIoLU2e/kX91KRZM9WhbYEUC0MJRkrbuEa062JpEJf2HCClhT10Re8zLDnvWe27qg5tgZcluSUB8FwflUEpKalWxyGEJRo2TCM8PFxlqA3FGTHxC6XqfwaKw3gko0EKtw0629JrBKOmicncYVFL5vYN00mJUW5HrPQ5OhVJADzjRG+JWqfkZHkwEvWT3W4nNVV5+tmrL6IQ0wjF7qG+mKJ/dvSV9GuuXPsh5EWGhfPFjfcRrb5n3xCbzcYA9cRPebrgZGTuxzNt0Lc+nZbD4SAh0T+LbDRNo7i4mLLSEioqK9DcGg6HA2dEBPHx8cTGxsrWxACiaRplZaWUlpRQVVVFbW0tYWFhRERGEhsTS0xsrF/iSm3YkIMHD6gM7W91LEFE6Us7PSGJJolJVsdCZFg4Myb8mWs/eZO5W9dbfr36LC0ukS9vvI++Ga0tvU7/5m2YsXmNylCvVohKAuCZDiqDEhITjbZZ9Yqrqoq9e/ewf38OR/LyqKmpOeXY8PBwGqY1olmzDJplNMfpNHc7i6iby+ViX042+/blkHf4ENXVp95KHxERSVqjRjRt2oxmGc0J89H2rRT1GQClV2ICAKVVXr4s/ZsQGc3UWx/mmw0reW3RTFbl7MKtaT67fqBrkpjEtX2H8sCIC0mItL4hU7d05Z+9zAD4gdI+jYQE3zz9l5eVsXnzRnbvyqK2tlbpmOrqag7s38eB/ftYvWoFrdu0pXOXrkRJtzHLlZWVkbllE7uydir/vKqqKsnJ3ktO9l6cq1bQpm17OnfugjPCmmnIE5KSkpWHoi8EzLcumqChVGSha3qG1XH8hs1mY1yP/ozr0Z/8shKyjhyi3FXl0xgCTZjDQXp8A1qnpPm0l0uXdOUFuC3Ra0p49IOSBMAzSr/A8fHWVu9yu91kZm5m88YNyjeSk6mpqWH7tq3sysqia7dudOzURRoXWcDtdrNl80a2bN7k1c/L5XKRuWUTWTu307NXH9q0tW6hmNPpJDomhvKyMpXh7ZAEQEULlUGdGnm1wNsrKTFxRhaiCZM1TUwmMSqaYxXldQ21o1cE3OnJdeQlsGeU0rP4+ATLAigvL+f7ubPZsG6tVzeTX6upqWbd2jV8P28OZWWlppxT6EpKipk3ZxYbN6w37eflcrlYsXwpixYuoLraZco5T6ZBonKxE1lJpqal0iAL9/+LwNciSfnn38LTa0gC4BmlBMCqhVtFRceYM2s6+flHLDn/kbzDzJoxjZycbEvOH2r27tnN7JnTKSiw5uH4wP59zJ09k/LyOp8WPBKfoJzIKtcPDmE29Ce2OrVIki3EoaxFsvLPv4Wn15AEwDgbisUXYtRLqSorLi7i+3lzqKioMP3cv+ZyuViyeCErVyw37Yk11NTU1LBs6U/8/NOPp13gZ4aioiK+nzfbks+FgURWZgDqloD+zva0IsPCSYuzbgZRBL7m6glgmqfXkATAuEQgqq5BdrudCJPLRFZWVrJwwXyqKitNPe/p7Nyxjdkzp3EkL89n1wwGhw8fYtaMaezeleWza5aWlLB44YLT7v7wRGys8rvgFqZeODgpfaunxiXIOpwQZyABVF6p+3uSABin9EI0MirK1F/g2tpaFi9aQGlpiWnnVFVUVMS8ubNY+vMSXFWhvSq4Li6Xi9WrVrDg+7mUlBT7/PoFBfn89OMiNBO3cMXGKM8AyJx13ZS+rGUBAdMXkgAAIABJREFUnkiKVv4MeFxtTnYBGKdUmSPC5CpRS39eQv4Ra975q9qzexeHcnPp3bcfzZu38GssgWjv3t2sXb3K8tczdTlwYD/r1q6mV29z2shGRtU54XWClL2sm9IDRANpIBbyktUTb4+rRUkCYJzSL7CZhXV27thOTvZej45t3awxHVo1IzkhnqPFpWzcsYfsg4c9jqWiopyfflzE1pQUevbsI62OgUOHclm/do0pi/yaNkqhR4fWRISHU1RaRuauHA7mFRg+z9bMLTRq1Jj0Jt5vJYuIiMBut+N2u+saeuL9tkwTnZpSNhUXoZx0mW7Nvt3MzlzH7vw88kqLqK375/4HCVHRNElI4sw2nTinQzcjPe7/oKqmmi/WLuXHrEwOl3gWj6cSoqLp2jiDa/sNJaOBb/NbA50GPX7XLAmAcUrzMmYlAMVFRaxds8rQMQ67nasvHMEDN1xCx1Z/XHC8JSub1z/7jk+mzcft9myquCA/n/nfzyE9vQk9evamQZL1JUsDzdHCQtatW03uwYNencdut3HDRSO568rRdGnb4jf/TtM0Vmzazj/+9V+mLVxu6LzLlv7MBaPHEBnp/c0kIiJCdWYjGfDuLyS4KX0xRPio0uOvbTqYw/3ffMSSXdtMO+ebP84hLS6RJ0eN58YBwwwfvyv/MBe99wI78nJNi8mobzes5IX5U3lz/M1c23eoz67rDFNqxAWKn6mTcXh6YAjrDlxa16AGSUlkeDlN7na7+eGH71WLsACQnBDHtLef4u6rxpDa4OSLSBomJTJ62ACG9e3O4lWbKCpRP//vlZSUkJW1g4KCAiKjoowsGKu3Dh3KZfWqlaxbu5qSEu/WZLTJSOeb159gwvgLaJj8x8qRNpuNpmkpjD9vKN3atWTWj6uoVlzkV1NTQ1FRES1btvIqRoDdu3dRqbb49FPA8ymm4NcLuLiuQT2btWRsV3Ne4aiYuWUtY959nqx88390Za5KZmxZw8GiQkZ17qW8Nqqi2sWw1yeTdeSQ6TEZVeN2M3PLWga1ak8LH9VnyCsp4sPlC1WGHgbe8+QasgjQOKW0zIweANu2ZnK0sFB5fHJCHAs/epHBvTorjR/cqzMrv3ydcecM9jREQH9KPbB/Hwu+n8usGdPYtUu9xG19UVtby+5dWcyaMY0F38/lwP59Xi+0u+qC4Sz/z2sM6KbUWoKxIwYy651niI5UX19y8MB+svfu8TTEX4Sp94z3eEVyiFB66HL4sFHX2n17uPrj1ymzuOzvh8sXMnnWV8rjP16xiF0WJCSeqnW7ecJA/N4Kcyg/n3s8XSQJgHFK0y3eJgAVFRVs3rRBeXxkhJOvX51E+5bG3vkmxsXw+Yt/5q1JdxMV4f1ri6NHC1m+9Ge+++a/rF2zioL8+l0ZtrCggLVrVjP12/+ybOlPHD2qnpCdSmx0JO8/fT//evZB4mKMTc8P6NaBj/72EHa7+g6TtWtXe7010KH+ZSTNJE5PqSBEtds3CbSmadz19ftUWFhJ8tdeXDCNDQfUCozN377J4miMW5GdRUmVb7Zhu9R/Zz3+4UkCYJzSN6G3WwA3rFurXDzGZrPx/lP3M6hnJ4+vd8u481j6+av07WJOXfnKygq2Zm5hzuwZTP12CuvXrTXl5ukLx44dZcP6tUz77htmz5rO1szNpq3sH9i9I8v/8xrXjj7L43OMHTGQ5+6/WXl8eVkZmVs2e3w9AEeYcgJgbXei+k/py9rAl79XFuzYxNp93s8QqXJrGq8vnqU0trjSv7tpTkbTNEoqram4+XtV6p8Bj6duZBGgcUp3dm8SgKOFhezerV5A5rbLzueyc4d4fL0TOrXOYPEnL/HP/8zgibc+obTcnEy3tLTkeBOcjcTHx9M4vQmNG6fTMK0R4eHKC10sU1FRQd7hQ+TlHeZQbi7FxUWmXyM+JpqnJ17PbZeOMvT0fir3XjOWxas3MnPxSqXxWzM307Zde6LUt/T9hoEZAOkrfXpKX9aVNdZWjjxh+ua1PrnOr83csha3pmGv4zuyTWojFmdl+igqNfGRUTT0UYXGqhrlB3uPZwAkAQhAmVs2K79f7tCyGc89oP40WBeH3c7dV49h7FkDuefZt5m9xNgOhLoUFxdTXFzM9m1bsdnsJDZIJDW1IckpqTRIbEB8QoKRm41hbreb4qIijh4tJO/wYfLyDlFcbG3BntHDBvD6Y3eQ3tC81+M2m413Jk+k92V3czj/aJ3ja2pq2LY1k569ent0PYdd+atCEoDTU1pxe6zc84W5RmzP8/2GjaPlZeSVFNEo/vTt0q/uM4QPlv3go6jUXNl7EGF236ydV+gEeILHHxZJAAJMWVkp2Yp7/u12Gx8++4ChRWGqmjVK5bs3nuC7BUuZ9MYn7Ni73/RraJqbo4WF+kLH7frWI5vNTlx8HHFx8cTGxhITE0t0dDQRERFERETijIj4ZdYgPDwMm82Opmm/vC6pqa6mqqqKKlcVVZWVlJeXU1ZWSmlpKaUlxRQXl6BpvtlH3L5lU56deAOjhw2w5PypDRJ4+y93M+6+p5XGZ+3cTpeu3TyadTGQlMkrgNNTKupQUO6bip+FZb6vLAqQX1ZSZwIwqFV77hxyLm8vmeujqE6vTWojJo8a77Pr5av/bDyuECcJQIDZtjVT+QZ1w0Uj6d3J2gZsF511BmOGD+TzmQv5y+sfkXvE2vf4mqY/oRcXmT8N7yvpDZN5/PYrueGic4ys5PXIhcP6M3JQb+b9vKbOsS6Xi6ydO+jYSW2XyK/Z5RWAWZRWxRb4qB23iRWjDXErfse9fPF1tEhK5W/zvjHyRGwqu83Gxd378dq4G0mKtqbD68kcVf8MePylLAlAAKmtrWVX1k6lsQmxMTx517UWR6Sz221cM3oEF599Bm/8eyovf/QNRaW+maKsTxLjYnjoxku566oxlszKnMoLD97MwhUblOoD7Ni+zaMEIEwWAZpFaQYgv7QYV20NTvXtl5Z648/daNmk7g0e9zy3kT0HzLtR22w2Jg4bxR1DRrLhQDYlPl4YGOZw0DGtCamx8T69LsDBorpf7R3n8VarwPh0CUDv66668v+uq0aftHCMlWKiIvnzLZcz4fIL+WDKHN7+Yjr7D9XvbX5maNYolTuvvJCbLjmPxDjf13Dv2CqDK0cN45Np8+scW1paQn7+EVJSjPXtMbCoVYqLnV45cAy9q+gpuTWNfUcLaJ3icadXU/XtnEjXtnXfBGOjrbmlOB1h9M1obcm5A9XuAuUOrAc8vYZsAwwge/fuVhoX4QxnwvgLLI7m1BLjYnjwhnHsnPUvvnntr5zRw/Pth/VZz46t+eDpB9g64z0euH6cX27+Jzx046XKuwvMKAwkvLJXZVB2oX+bfwn/2luonAB4/AstCUCAqK6u5uABtUTu2tFnkZai1JPIUna7jQvO7MfCj15g8ScvceWoYaYUEwpkURFOLj//TBZ9/CLL//Ma14weQbgf6rb/XvuWTRl5htoK/+y9e01tFywMU/rC3nHEf/XvhX9V19aSU6g8u7rX0+v4/5tLAJCbe1C5fO6Nl5xrcTTGDejWgQHdOlBcVs6385fy+cyFLFm9yaedu6zisNsZ1KszV10wnEvOGURCbGC2ar153HnM+Wl1neMqKsopLCwgOVm69/rJXpVBWw7uszgMEah25B3EVatUCKgC8LhZgiQAASLvsNrPsHWzxvTpbO3Kf2/Ex0Rz/dizuX7s2eQfK2bGohVMW7iMRSs3UlbhmxKaZoiOjGBon66MHTGQ0cMHnLKxUiA5d1BvEmJjlBZo5h0+JAmA/2xRGbQpN8fqOESA2nhQ+WefCXg8nScJQIDIy1NrenH5+WdaHIl5UhLjueGic7jhonNwVdewfMNW5i9fx5LVm1m7NYvKKt/UH1cR4QynZ4fWDOnTlbMH9GBgj05EOP1fpdCICGc4Y0cMVFoMmHf4MB07dfFBVOIkNqoM2nwwh1q3G4cJjcVE/bLxoFq/BMCrhgmSAAQAl8vFsaNqWz7OHdzH4mis4QwPY2ifrgzt0xUAV3UN67ZmsWrTDjbt3MPmnXvZunufT2YJoiMj6Ngqg85tmtO1XQv6detAzw6t690N/2TOHdxbLQE4koemaV73rBAe2QzUUseOiZKqSjbn7qN7k+a+iSpAVdVU88XapfyYlcnhkiKfvlZMiIqma+MMru03lIwGvpsxW7p7u+pQpWTyVCQBCABHCwuVFmVFR0bQq2MbH0RkPWd4GP27daD/r1rhappGTm4e2QfzyM7NI/vAYfYfzqfgWDGFRSUUHCvhWEnpLzMHxaXlvzwhxcfqe5QjI5wkxsWSlBBLUkI8yYlxNG2USvP0hjRv3JDm6WlkNG5oSj3+QKTaCtpVVUVpaQlxcb7f3yyoALYDdW6fWbZne0gnALvyD3PRey+wI89/CyK/3bCSF+ZP5c3xN3Nt36GWX6+i2sW6/XtVh6u3jD0JSQACQEmJWi36/t074AwP3h+ZzWajeXoazdMDY+9zfdQoJYk2Gelk5dRd472kRBIAP1qKQgLw0+7tTBg80gfhBJ6Kahej33mOXflqr0etVFlTze1fvEuzxGSGtTVeSMuIVdlZVKk1g6oBVnhzLXm5FABUm9H06BBahTCEZ3p2VPuclFjcBEmc1s8qg+Zv3xgUO2k88fGKRQFx8z+h1u3miVlfWX6deduUZ/XX4UUjIJAEICCUKs4AtMlItzgSEQxaN1P7nKjOPAlLKCUAR8vLWJWzy+pYAtL87V6tb7PEiuwsSqqsXac0b5vyrL7SZ+h0JAEIAOXlarWz2zRrbHEkIhi0aa6WAJSXST8HP9oJKG30n525zuJQAlOxj+v+q9A0jZJK65oSHSwqNLIF0OteyZIABADV+v9N0mTftqhb04ZqnxPVz52wzByVQVPWe/Wat95qk9rI3yH8QXxkFA3jrKsJMmX9CtUqnS5gobfXkwQgANSoLfggNjrK4khEMIiJjlQaV6PQPVBYarbKoJ1HctlwQHlfeNC4us8Qf4fwB1f2HkSY3bp+V1+vW6Y69EfA657RkgAEgOpqtS9i1S92EdriYtQSRZkB8Lv5QJXKwC/XLrU4lMAzqFV77hwSOGXP26Q2YvKo8ZadP7vwCCvV13vMMuOakgAEgFq1ms9B32hHmCM6MkJpXI3i505YpgSYqzLws1VLqFbsFRJMXr74Ol4Yew2JUdF+i8FuszGuR38W3TuZpOhYy67z0YpFqtP/GvCNGdcM3k3lAaSmppqjR49SXFREcXExJSXFVFdX43JVUVNTg1txm49UbRMqVD8n5WXlzJj2LWFh4YQ7nUQ4ncTFxxMfn0B8QgKJiQ1wOKyb7hQAfAWMqWvQ4ZJjzMpcy9iufX0QUuCw2WxMHDaKO4aMZMOBbEp8vDAwzOGgY1oTUmOtrZfh1jQ+XbVEdfhSwJR3QpIAWKSiopyNG9Zx6FAuBfn5yjd5IXxF09wUFRWd8t87HA5SUxuS1qgxFRWBtyI7SExDrwxY53ub95YuCLkE4ASnI4y+GcFbB2V25jr2HVVu/2taMQJJACyyf98+9u+Tdp6i/qqtreXQoVwOHZK+9BYqAb4Frqpr4PfbNrLxYDbd0kO3NHCwenXhTNWhLuALs64rawCEEMK/3lMd+OZipZ2Doh5Zs283P+7aqjp8KpBn1rUlARBCCP9aDOxQGfjF2qXsP1ZgcTjCl15cMM3I8PfNvLYkAEII4V8a8I7KwKqaap77/juLwxG+suFANt9tXKU6PAt966hpJAEwrou/AxAigGX4O4B66j3gmMrAj1YsYk+BabPAwo+enP216tY/gJcBU1eTyyJAdWHAs8Bd/g5EiAA2AdgNvIL+ZCvUlKBP7z5U18Dq2lomz/qaj6/13VfRvc9vIiaq7i2he/abXye/qqaaL9Yu5cesTA6XFPm0O2JCVDRdG2dwbb+hZDQwtxT7z7u3M0u9z0M+8LGpASAJgKpk4DtgsL8DESLAOYB/oP+uXI2+xU2oeR24F6iz4teX65Zyx5CRDGjR1vqogJWbj/rkOr+3K/8wF733Ajvy/LcT5dsNK3lh/lTeHH8z1/Ydaso53ZrGg99+YuTp/y3A9OxKXgHUrRl63WW5+Quh7mJgHtDA34HUI/uAD1QGaprGQ99+glv9BnJSEWH+eQaMDKu7qmlFtYvR7zzn15v/CZU11dz+xbss2rnFlPN9vGIx6/bvUR1+DHjNlAv/jswAnF579C8xr99rhjkc9O3Sjl6d29K+RVNaNW1EcmI8sdGR9Bx3FzUhWOZT+Fd6w2Rmv/MMZRWVHCksYlfOQbbv3c/KTdvZsH03brfXM/iD0ZPnc4BDXgccGp4GbkChMNCqnF28u3Q+Ewad4/HFGsUnenysNxon1J0XfrxiEbvyD/sgGjW1bjdPzPqKxROf9Oo8+WUlTJppaCv/y4AlUzCSAJxaU7y8+UdFOBkzYiBXnH8mQ/t0I/YUzXykxK/whzCHgw4tm5303xUWlfDDivV8PnMh835eS7XnnQO7oLe9PRM4ddlBcUIu+o6A+1QG/2X6f7iwcy+aJiZ7dLEzWrZn+uY1Hh3rqW7pzYmLqLux2fztm3wQjTErsrMoqapUiv9UHvzmE46UFqsOz8eip3+QVwCnkoTepMOjm39aSgOeu/8mshd8yid/f5hRQ/ud8uYvRCBKSojj0pFD+Oa1v7Jn3kc8eusVxMd43JClO3oBE/klUPMMUKgysKSqkru++sDIu+TfuLTnAJwO3z4HXtH7DKVxxT6u+69C0zRKKj1/FT9j8xq+WPuzkUOeBJSzBaMkAfijMPTSnJ2MHhgTFcHf77+RHTM/4P7rLyEhNsb86ITwsdSkRCbfdQ275n3EPVePxW736GvjTOBDk0MLVgXoX/xK5mxdzzs/f+/RhTIapHDboLM9OtYTTROTuWPwSKWxbVIbWRyNcfGRUTSMS/Do2APHCrn9i3eNHJKJYn0IT0kC8EdPAYaXeo4a2o9N373DA9ePI1La9oogFB8TzUsP38q6KW8xsHtHT05xJXC7yWEFq3+i3wCU/Hna52w9dMCjCz07+kr6NW/j0bFGRIaF88WN9xHtVGtXfXWfIRZHZNyVvQcRZjfeIbO6tparP3md/LISI4fdB1QbvpgBkgD81gjgESMHhDkc/GXCVUx5dRJN0szdJypEIOrQshnzP3yOv0y4Crvd8PqVV4GeFoQVbKqBO1GspVBR7WL8v172aNo8MiycGRP+zLkdexg+VlVaXCJz7nzcUEe/Qa3ac+eQcy2Lyag2qY2YPGq8R8f+ddaXLNujVO35hC8Az6Z1DJAE4H/igU/R9zErSYiNYfY7zzDJsy9CIeqtMIeDSROu4tPnHiHCGW7k0EjgI2QBsorFGKj9viMvl5s//6dH6wESIqOZeuvDfH79RPo3b4PdpIXJTRKT+PM5F7HpsZcY2LKd4eNfvvg6Xhh7DYlRHq8/8ZrdZmNcj/4suncySdGxho+fu3U9r6h3+wN9/YfSIlBvyV3rf17BwF96alIiM95+kh4dvO9RHdvnIqVV1mVrphLmMD79JEJLTm4ebc+/qc5xGY0bsnO296/lF67YwKX3P01peaWRwx5A/50Tp5cIbAHSVQ945sIrePisMV5dNL+shKwjhyh3VXl0fJjDQXp8A1qnpJmyy8lVW8OGA9mU+HhhYJjDQce0JqTGxnt0/K78wwx5dRIFZaVGDrsRPUm2nGThuq4YKPEbHxPN9LfMufkLUd8N79+dKa9OYszdk6lyKb+yfBL4CvDsxXXoOAbcBMxG8YFt0swvadYgmSt6DfL4oikxcaTExHl8vNmcjjBDrw8CwZHSYsa8+7zRm/9sLCj5eyryCkD3PKA0jxkeFsaU1ybRs2P9+jAKYaVh/brzzuSJRg6JAyZZFE6wmYteClaJpmnc/p93jb5zFiYqqizngv/7O1lHDNW/OgRcjw97aEgCAD2A81QHP33PdQzt09XCcISon64cNYwJl19o5JAbgCbWRBN0HkF/FaCksqaai957gQ0Hsi0MSZxMVU01l33wstG/ew399+GIJUGdgiQA+lOI0tTauYP7cN91F1scjhD11wsP3kz39q1Uh0eg0P1OAHpTpXEYKApzrKKcUf/8m8fbA4Vxbk3jxn+/zeIs5R2cJ/wNfabHp0I9AWgBXKQyMDoygjcfv1PK9gpxGhHOcN6adLeRXTG3AsaXVoem7cB1GJgizi8rYeTbzxhpPCM85Kqt4fpP32TK+hVGD10APGFBSHUK9QTgGhT/Dh699QoyGje0OBwh6r++Xdpx08XK+7dj0J9shZqpwItGDsgrKeKcN59m4Y7NFoUkSqoqGfPuC3y1bpnRQ/cClwN+6QYnCYCC5IQ47rxytNWxCBE0HrvtCiP1Aa61MpYg9CjwjZEDvLhBiTp4kWAVA2PQSz/7RSgnAH3R2/3WaeK1F0szHyEMaJKWwrWjz1IdPhxobGE4wcaN/vBi6G7uqq3huk/f5LVFs6yJKgTtLTjCiDee8uQVSzX6zJdfWx6GcgKg1ETbGR7GLZeeb3UsQgSdu65SLkZjB5SzBQHoiwIvBrKMHKRpGo9M/YwHvv0EV63HLZ4F8MOOzQx+dRI7j+QaPdQN3AzMNz8qY0I5ARihMmjU0H4kJwZOQQwh6otOrTOM1MsYbmUsQeow+vfYXqMHvvXjHIa++gS78w+bHlSwq3W7eXrOFC585zmOlHrUqfdh9LLzfheqCUAEoNSU+vLzzrQ4FCGC1xXnD1MdqpSQiz/Yhz6bafgxdN3+PfT/x2N8LesClB0pLWb0u8/zzNwp1LrdnpziUeBlk8PyWKiWAu4ERNU1yG63cWbfbj4Ip34pKi0jc1cOeQXHsNttNExKpGu7lkRHqrX5DCaVVS427dzL4fyj1LrdpCYl0LFVBg3iZWcbwIgByh3mWgDJ+HFBVD2WhZ5AzcdgYaXiygqu+eQNft6znefHXE1EmKHGTiFlwfZNXP/ZW54+9QM8BjxnYkheC9UEQGnxX/f2rWT6/1fm/rSa1/89lR9Xb8JV/dv3h9GREZw1oCcP3jjO017x9cqazJ38419TmPvz6j80wQlzOBjSpwt3XjGaMcMH+CnCwNC1bQtSGyRw5GiRyvD2wFKLQwpW24BB6ElAG6MH/3PJPOZu3cCrl1xvaVvg+qiospwnZ/+Xfy6Zi9uDTovodRseQG+FHVAkATiNXh0N/x4FpSNHi7jhsZeYv2zdKceUV1YxfdFypi9azuXnn8nbk+4Jyp0TFVUuJv7tbT6ZtuCUbVdramtZuGIDC1dsYGjvLnzy3CM0Tk3ycaSBwWaz0b1Dq9N+dn6lHZIAeCMbGIZeUa6z0YN35x9mzLsvMK5Hf1666FrSE0LzM/trX69bxkPffcqh4mOenqIavdiVzxr8GBGqawCU7uztWjS1Oo6At2tfLoOufkD1CxyAL2cvZtgND5FX4PEvTUA6WlzK2Tf9iY+nzlfuuf7jms0MvOo+tmSFbk329i2bqQ5ta2UcIeIAMBC9q5xHpqxfQee/PcjTc6aE7E6B9Qf2cvabT3HNJ294c/MvBcYSoDd/CN0EIFFlUOuM0N6aXFJWwaX3PU32QeMrhTft2Mv4B5410h42oNW63dzw2Eus3rLT8LG5Rwq56J4nVafBg06bZsq/Rw2sjCOElKCXOP/I0xOUu6p4Zu4U+r74KFPWr/B06rve2ZV/mJv+/U8G/uNxluza5s2pctAXmnuciPlCqCYASi/2E+NCeyHXo698SOauHI+PX7ZhKy9/PMXEiPzn7f9MZ85Pqz0+Pic3j4deeM/EiOqPRPUFkaH9C2cuF3AjcB/6NLRHth0+wFUfv0a/lx7lmw0rPF35HvB2Hsnl9i/epdvfH+Lfq5d4m/AsRC8059ciPyokATiN2Og6NwoErZ3ZB/jXt/O8Ps/LH31DwbESEyLyn5KyCp5770uvz/PV3MVs2L7bhIjql7gY5d+jeCvjCFGvoRdZMtSY/vc2Hczhyo9eo8vfH+T/fppHmavKnOj8bOmeHYz/8BW6/f0hPlqxiBq3VyX5NeAlYCSQZ0qAFgvVBEBp8WOYw2F1HAHr85kLqan1vj9FcVk53/1Qv9d1zfpxJfnHPN768wu3W+Oz6T+YEFH9Eh6mvNZY9qBZYwnQCxPaze7OP8zEKR/R4ok7ufvrD1izr/4ltIXlpbz54xx6vfAnhr8+mambVpnxiiMfvTLjw0C9WTgRqrsASlUGlVVW1j0oSHkz3f17s39cxc2XKHeHCzim/l0sWcWLD91i2vnqg5KyCtWh3mdZ4lRygfPRV6S/AkR7c7LiygreW7qA95YuoGOjJozrPoDLeg6gQ5qhMgQ+U1Ht4ocdm5myfgXfblxJubkzGAuA69EXYNYroZoAKM1Jl5SWWx1HwMrKPmjauXbtM+9c/pCVY178e/YfotbtxmEPncm3kjLl3yOlxFx4TAPeRd9q+T7Q34yTbj10gGcOTeGZuVNo3zCdczv24NyO3RjUqgNR4U4zLuGRbYcPMG/bBuZu3chPu7ZSWWP6guQS9OI+b6H/3dY7kgCcxr5DR6yOIyC5qmsoVv/SrlN93w5oxvT/CTW1tRQWlZDaIMG0cwY6A79HMgPgG5vRiwbdAzwDxJh14u15B9med5DXF8/C6QijV7OWDGzZnn7NW9MtvTmtUtKw22xmXe4XheWlbDqYw/r9e/l593aW7tnuTcU+FTOAO9FLMddboZoAKP3Qdpr4FFyfOMPDiI6MoLzSnGkyA6vAA1JCrFezpb9hs9lIiDXt+7Ze2LFXeWa0Xn+Z1jO16JXpvgFeAMYDpt6ZXbU1LN+7k+V7/7d1NtoZQYe0dFokNaRFcioZiSmkxSeQHBNHUnQssRGROOx24iKijp+jmnKXi+raWgrKSigsL6WwvJR9RwvILjzCnoI8dhzJJbfoqJmhn845SGJ0AAAgAElEQVRu9Pf83/jqglYK1QRgu8qgzVl7LQ4jcDVJS2FntjmvtJqkpZhyHn9pkpbCuq27TDlXw+REnOGh9WtnoAiS0u+lMFUOcAX6NPar6IsFLVPuqmLtvj2s3bfHystYoRT4G/r6iaBZHBY6LyJ/S+mLZtn6TKpr6s2CTlON6N/dtHOdPaCnaefyh7P6m1cbvb7/XRh1pPAY2/YoP9h7VXlFeGUJ0AcYA2zwcyyBpAp93URb4O8E0c0fQjcByERh0UZJWQVrM7N8EE7guXTkEFPOY7fbuPhspc7LAWvsiIFGtrKd1rhzBptynvpi4cqNqmWTS9GfRoX/aMB0oDdwLfr3ZKgqA14HWgK342UdhUAVqglAHrBVZeDUH0KzV/bQPl0ZYcKT7zUXnkXb5oG5NUhVk7QUbrn0PK/P07dLO0YN7WtCRPWHgd+fJejvpYX/1QKfoTcUGoK+4K1ernL3QB7wJNAcmIi+fTJohWoCAKBUkeXzmQuDtvxlXV7+023Ex3i+AK5xahJP33udiRH5z6QJV9M8Pc3j46MinLz5l7uwWbACOlAVl5Uzc/EK1eELrYxFeOwnYDTQA3gTqN9bek5OQ78fXAVkAJOBAn8G5CuSANQh90ghc5aYVwimPunYKoOP//6QR4vWYqMj+erlx2mUEhwtRZMT45jy6iQS44yv4A9zOHjvqfvp0aG1BZEFrs9n/EBFlUt1eOiVSKxfNqJvG0xHfz0wCy96DASIHcDT6G2ozwL+g/7OP2SEcgIwD8XCI89/8JXFoQSuUUP7MfudZ0lNUmqgCEDLpo1Y/PFL9Ova3sLIfK9ruxb89NnLtG+p3iY6KSGOaW9N5rJzzVlTUV9U19Tw8sffqg7PBtT7TQt/qkB/PXAB0Ai4Bf0VQZk/gzJgI/pivp5Ae+CvQGgu9CK0E4AyQKlV3YqN2/hhxXqLwwlcg3t1ZtN3/8cD148jNjrylOOSEuJ48u5rWfvft+jStoXvAvShts2bsPKL13nu/ptOmxRFR0Zw11Vj2DT1Hc4KsZX/AJ9N/8FIG+lPgdB8z1a/FQIfoL8iSEZvgvMPYBWBUw9/P/qT/S1AU6A7evW+0P1C/5XQeSF5cmcB81UGdmqdwcovXzdtNfivxfa5SGm7YdmaqX5vUFRZ5WLRqo2szczicMEx7HYbjVOS6Ne1HYN7d/F7fL5U63azdF0mKzZu4+CRQmprammYnEj39q04a2BPoiL8UwY1JzePtuffVOe4jMYN2Tn7Q9OvX1xWTtexEziUX6h6SAekBkCwiQH6oZcb7gZ0RX/itrLhUy56C96N6DNKPyE7S04rtCqS/NFC9PdA7eoamLkrh9c/m8qDN4yzPqoAFhnh5LzBfThvcB9/h+J3DrudIb27MKR3F3+HElAmvfaxkZv/QuTmH4zK0H+2v17c6UTfVtcSaIG+0j4NffbgxB8n4OB/raFd/O/1wlH0rnsFx//sA/YCe9Ar9Cl/6IQu1BMAN/AcoPQY9OTbnzGifw96dgytxVxCqJrz02re+XqWkUOetSoWEXBc6MmeJHwBIpTXAJzwGfoipDpVuaq5+pHnKCqtL+tdhPCdnNw8bnr8H6qFfwCWobdSFUL4gSQA+laWp1UH79qXy6UTn6ZSfXuTEEGvsKiEMXdNpqBIqdHmCU9YFY8Qom6SAOj+BShXLPlxzWaue/TFkO0TIMSvlZRVcMm9T7F1t6H1Vv8FvrcoJCGEAkkAdG703s7KpUin/rCM0Xc9QUlZhXVRCRHgCo6VcMEdk1i2Qamy9gnlwEMWhSSEUCQJwP+sRW/1qGzhig2ce+tjRvY7CxE0NmzfzeBrH2DFRsNN/P6M4robIYR1JAH4rccx8CoAYE3mTvpfMTFkmwaJ0KNpGu9+PZuh1z3E7n2Ge6V8h15TXgjhZ5IA/JYLGI/BRhBHi0sZ/8CzXHzvU+Tk5lkTmRABYGf2AS6446/c8+xbniyEzUGvyBYqneWECGiSAPxRDnpXKMPfbrN+XEmPS+7kkX+8b6QQihABb9e+XG6f/Bo9x93FguUele0vBsYSIl3WhKgPQr0Q0KnMA25ArxFgKEkqq6jktU+/452vZnHpyMFcfeEIhvXtjt0e6lWXRX3jqq5hzk+r+Wz6AmYsWuFNW+wq4CKk/roQAUUSgFP7D5ACvIYHPRMqq1x8Nv0HPpv+A2kpDRjRrzvD+nWnd6e2tG2eTqSf6sQLcSql5ZXs2LuflZu2sXDlRhav2sjRYqWGmadTA1zNb0vCitDVGL0UcAaQym/LAIeh9wqIPT62Er37IPy2DHA+epOfvejlgOt7W2K/kcfSut0EvIOJyZLdbiO9YTKpDRKIiYpk6fqtuBWeropXfkuE08peGiIYZOUcpPOY2+ocFxUZQY/2rSitqCD/aDG5R0x/bVWOvqZmptknFgEvFeiL3gioO9AFaAOcup2oZ2rRk4BNx/9sQN/RFbItfo2QBEDNGOALIMqfQRz5+SviY6L9GYKoBzJ35dBz3J3+DqMQuBC93K8Ifk3Q2wEPAc5A7/znT4eBpegdAeejdwgUvyOvANRMAwYDX6JnsX7hqpbKg6JuVS6/z4iuAS4Hdvk7EGEZGzAAfWHneehP+YEkDbj4+B/QXxnMAWYAc9FfL4Q82QWgbi3QG/jKXwFUVkr/AVG3iqoqf17+DWAQcvMPVr2BF9Hfvy8F/kTg3fxPpin6FtTv0GcHPkGfoQrph2BJAIwpRn+yuRowXAHFW4XFhhqtiBBVeMwvn5Ms9CfBe9FX/YvgEQ/chj6zsxq9jHOGXyPyTjxwLTAdff3Ac0BI9niXBMAznwMdgdfRVzn7RMHRYl9dStRj+cd8+jmpQO/q1xV9alUEjzbAW8BB9IXQvfwbjiUaoc9i7EB/PTDcv+H4liQAnisCJqIvdnkPDwoHGVVQJAmAqNtRYy15PVUKvAS0Ap4ihN6pVqwY3VLTgnoBdT/gG2A7epO0GP+G4xN24ALgB/63hiXo749B/3/QB3ajT4+1Bp4HDlh1oYN5UkRN1O2AtZ+TLGAS+l7uh4FDVl4sELnh7bJlo7r4Ow4LdEFf47QcffFcqN4feqHv+toEXEYQ75YL1R+wFfajdznLQN8O8xH61Jlp9h6UPgOibnsOmH5P3g38E31xX1vgGfRiLCFHW3pZFJo2FIf9fH/HYqLm6De8jQT5Dc+gTugJ0SpgqJ9jsURIr4C0iBv4/vgfgA7o75V6H//n9ugVBg3ba/4XuwhCXranzkWf+t2O3hlzIfqKbwFU2MvHgi3apnE58IK/4/FSDP/P3nlHR1G9f/iZ3U0nhRBqgBCkS+9VOkhTQMCGioBUu2LBAgqKDcSvoChgBwsgSAfpvffeCb0HQkjdzO+PwZ+okNzZndmd3dznnD0HkvfO/SS7mfvOvW/RHlpewkM1TuyBQUQUKU5EbBzhhYsTmq8AwVH5CI7MS0BIKIrdQWBYOADOtFQy01JwZmSQevUyqYmXSEm8RNLpE1w7fZxrp46Tft0jx6I1gOXAFOAV/OjvQToA5rPv5utWItFKX0aglb2sg3aemi1HTkgHQJI9qqpy9KTw5+QJtC396zdf54Bkk6T5BSrKCzf/WT1pXbum4XXn+GqJ4/bAF0AxsyYICo+kcJU6FKxUk5iylYgpU4mo4neh2IzbeE4+f4aLB3ZxYf8Ozu/Zyukta7h+zrRT2K5ov7d3gJF4MADcLORWjzUoARzNySjA4eDSmimyHLDkjhw7dY6y7XqJmDrRnvq8XjXIV0he2+4+FOWPv/6vwsqwOrMbK4pPtTcugNbf5CGjL+wICia2ViNKNGxNsbpNyVeqgqGLvShJZ05wcuMKjq1cQMKaxaRcMeW0aitaXYEtZlzcU0gHwBrY0LIK8uRkuOHX/1GlbEnzFUl8kplL19H1heEipvvRjqQkAlxa1yYiGPtutIIyf6Mo/cLqzPrKO6p0cx8wAa1OvyEEhIQR36QtZdp0pUTDljiCrVWqXHU6ObN9PQfmT+Xgwt9JPm9o+ZZMYBjwPj66GyCDAK1BFrBHxHDngWPmKpH4NLsPHRM13WmiDL9CVYfagnFM4N+LP6Co6sfX17St5AVZeggDxgF/YNDiH1uzEa0/+Ia+q0/SduRPlGpxv+UWfwDFbqdI9fo0GTyK3kuO8MA38ynbthv2wCAjLu9AOw5YjpYV43PIGADrsB0t/zZbNu7cT/cOzTwgx3iOnz7HgtVbuHY9meKFC3Bvo5qWam6UnJLKglWbOXLyDOFhobSoV427ihX2tixdrN+xX9RUNkcRJGX9pg/Qzn//gwrhis0298a6NvVC68476WFpIpRFy+mv4O6FAkLCqND5cao83J/okt7u9aMfxWajWN2mFKvblNTES+z+/Xu2/jjGiJiB+mhHAk+gOVk+gzwCsA7PoFUWzJbKZeLZ+NvnHpBjHJlOJ6+MnMiXv8wiK+vv49Ko8DBGv96fh9s28Z64m/yxZC0D3v38H1X0FEWhZ6dWfPpaP5+Iu1BVlSJNHuGyWCGgTmh10SV3QP2tqz25eMooRStvnBOnyLJ1CKs/c6vpwsTphJaOHOHORULyxlDtiWep/OBTBEdGGyLMKmRlZnBg3hQ2TviESwd3u3s5FRgBvI0WY2N5pANgHWqjpV1li82mcHbFL0Tm8Z3iXP3f/Zxvfr99lVhFURjz5kB6P3Cvh1X9za/zlvPkGyNxZmXd9vvd7r2HHz94xcOq9LP70HGqdxkoah6LwXUq/ImU1W3jVJttoqrQXMewayrK02F1Zv3k5cBABRiKVrDJ5Xt8UEReajz5PFW7D/z/1Dx/Rc3K4sC8Kaz7YjhXjh5w93LzgW6A5Zu3yBgA67AVuJGTUVaWypqtQuEClmDLnkN3XPxBe2p95r2x/DRriQdV/c3vf66m55uj7rj4A/w2fwUrNu/yoCrXWLlZ+Fj/KHLxvy2X1rWJuL6uw2tZdttunYs/QISC+kPK+vaLkte3rWmKwJwJROt09zYuLv42RwDVHn+Gngv3Urvva36/+IN2PFC23YM8PnMbzYZ8Tkhel0q1/MW9wCpuEzNiNaQDYB0ygA0ihgtWbzZZinH8sWRtjjZZWSq93/6UYeMmo6qeeXBSVZVPvp1K91c/JNOZ827dH0vWeECVeyxYLZyRtMpMHb6GuqlD6PX17Vonr2s3NgT7SQV1BG7Uv1ehGaptY/K69muS17Xrk7q6jac6zUWiNWTq7uoF4hq0oPuMzTR+7ROCIvIap8xHUOx2Kj/Yhx7zdlHtsadR7HZXL1UZraRyZePUGY90AKzFahEjX3IAzlwQq0uvqirDx02mXf+39RSycYmTZy/S+blhvPHZd9k++d/KmfOXTdXkLmnpGSzfKBzXJ/Q5yw1cX3dfwRuZ6gpFVeaBMkAFIx9364HyldNu35i8rr3w2YyL5AUWAk1cGRwUHkXzoWPp9PVsnwzwM5qgiLw0fn0kj0xZS4G7XW6CGIuWIVDPOGXGIh0Aa7FQxOjIiTPsP2rFgOP/Ujh/Pl32i9dtpXqXgbzzxU9cMrivfWJSMu9//QtVOvdj7gqhzZb/p3ABawc/rdi0k+QU4YZ8Qp+z3ECeujPPhdWdXTPLGVAI1F4oGBLEp0ASKmNArRlap2ZMWN3ZY4247h0oBKxAIIvodsQ3bsMT83ZRqVtvUGRY2K3kL1eFh35eQd2Bb2Kzu5Q0F4W2K9PYWGXGIN9ta+EALqB9aLJlyIDuDO5jeDEvw9my5xD1HnnepbF5QoPp3qEFj7RrQp3Krtes2bLnEJPnLOWHPxZx9bprlW4XTfyARjWs2wCu79DP+G7GnzkbamWpy5ssx6e5vq5DK1DHKFrjI71kKvBpCs7h+erO80Sh+oJoT5m6H9ttjgAaPP8uNZ58QS78ApzZto75r/bg6okci7bejhtAW7T3yjLId916TAUeyMmobHxRdkwf5wE57jPg3c+ZmE0goAhxRQrSpFYlGtWsRIW7ilOqeJHbZkJcS77BoeOn2XskgZWbd7Fs4w63jxS6tm7ETx++6tY1zCQjM5PizR8TTf/7FHjRZEk+j7q0SXByaJ73FFX8d6XCAbB1zVN3pqdqLESjNWvSfc4cXrgYbUf+ROGqdY1X5cekX7/GwsG9ObTIpXT/JKAFgrFenkA6ANbjSeAbEcMtU8dyd6k4k+W4T0ZmJt1efF/3tntO5AkNJjQkmLCQYG6kpnEjJZWk5BRD52hSuwozPh9CSFCgodc1knkrN9LxmXdEzVsCi0yU41ckr+/QC5UvQc22EISqsNzpzOgcWX+Bp4JFwoHFQC29A0s2bUer9yf4XU6/x1BVNo7/mDWfD0UVCCD+F5fRusNaohCXjAGwHtOBdBHDH2b6xn08wOHg15GDadWghqHXvX4jlfOXEjl68iznLl4xfPGvU7kcUz9909KLP8D3fwh/Di4Ay8xT4n+E1Zk1UVXoAdnl9aubwoLT23lw8bcDk3Bh8a/afSAdPp8qF393UBRq9XmFjuNmEphHd42laGAeJnZh1IN0AKxHIiB0mPvjH4tIS/eNZm6BAQ5+G/UG3e69x9tShGjfpA5zvhxGeJhH2qS7zPlLicxelmP9qL+Yio82LfEmeerMmgzK7TssqSRkOQPbKVUWerKN8v+ADrpGKAoNX3qfJoNHeaVDnz8S16AF3X5cQngh3en+RYC5aGmbXkV+EqzJbyJGl64mMXPpOrO1GEZIUCA/jBjEe8/1wGaz5umToii8/GQXpox60/KLP8BPsxeTkSm8pgt9riT/JTQl6V3gP/m3qk3tE95g+nkPShkEDNAzwOYIoPWIidTs9ZJJknIvMWUr0fXHJUQW092htSIwGS+vwda8C0si0Cq15ViMpF6V8iz7/mPzFRnMsg3b6T9sDEdOGNqe0y2KFoph7JtPc29DbxVx00em00n59k+RcEZo/UlA61gmVvhA8h+S17WrAcpGbt43VdSf89Sd84gHJTRHSykTrk7jCA6l3aeTiW/cxjxVEpIvnmN677ZcPKC7YuhwtJLNXkHuAFiTa8CvIoZrt+9l7fa9Jssxnia1q7B5yhief7wTDterbRmCzabQ78H2bJv2pc8s/gBTF64UXfxBCyyVi78bhNWdsxnt/BZAVW229zw4fRzwC7oW/xA6fT1TLv4eICymIJ2/mU/eErozR98A7jNBkhDSAbAu40UNR/8w3UwdphEaHMSHL/Ziz6yv6f3AvR53BGw2hQdaNmTrtC/47PV+PrHlfys63ncngpklkuxRVfXTm//8M7z2LLfbxwkSgHZ8I1yg3mZ30OaTH4mt2cg8VZJ/EBqdn07j5xBWQFcLcQWtd0MJU0TlgHQArMs6BFNFZi5dy+5Dx02WYx5xRQoy9q2n2TFjHE8/eh/585obG5MvMpz+D7Vn67QvmPzxa5SLt0RAri7mrdzI1r2HRc0XACdMlJNrCDsRuhS4jIInve4h6Knypyg0HzqGu5rpixOUuE9EbBydx8/R20chEvgJHbs7RiFjAKxNT2CiiGGnFg345ZPXTZbjGTIyM1mwajNTF65k6YYdnL3ofnZV/ugomtauzAMtG9KmUS2CArNN67Y0qqrSsPuLbNp9UHRIKwQzSyQ5c31d+5/tquP1kHozjnlgugZo1eOEF4cGLwyn1lODzFMkyZEz29cz7cl7yUzNscHrrbwNDDNJ0m2RDoC1CQKOodX6zhZFUVg7eTTVynuq8Zjn2HskgeWbdrL3UAIHjp/iwPGTnDp36badAxVFoUiBfJSOi6VsiVjKlyxOoxoVubtUHIqflDv9Y8laur0ofPy8HahGtnnsEj2oS5sEK02XCTdecIMwYCda8KYQVbsPpMngUeYpkghzeMksZj/bDVWw4Rhaim4dQLitp7v4xx3Rv3kDLVI0RxrXqszC8e+bLMc6JKekknwjleSUVEKDg8gTFkJYSLC3ZZlKRmYm1bs8zYFjws2gHgd+NFGSxDxGAS+IGsfWbMQD3853tWmNxATWjnmX9V/oihXdjlbgySMFXrwbfi0RYTfQD8hxZTt++hxVypakbLzuwhQ+SWCAg7DQYPJG5CFPaAiBAf5/4xszaSa/zFsman4M6IuM/vdFaqEFAgvFaYVE56fzhLkEhXu9tozkForWbMSZrWu5elK4gVAhIBkPteyWQYDW5zIwWtT41VETfaY6oEQfFy4n8v7XP+sZMgwPPUlIDMUOfI3gA5pis9H6g2/IU7CIuaokutHem28JzVdAz7AhaGmfpiMdAN/gUzRHIEeOnDjDBxOESghIfIxBn0wgMUm44uwhtPQiie/RC6gqalyz98uUaNjKRDkSdwjLX4g2n/yEIp7mHAJ4pLpbrnMA1KVNHIkr2+nK0bAAV9Hxgfj4m6nsOnjMPDUSj7Nw9WZ+nrtMz5AhyLr/vkgkOiLBi1SvT71nhpgoR2IExeo0ptZTr+gZ0hUwvXFKrggCVJc2cdwICeuJqvRGoSbaz50KymJbFh+H1J+13NsaBQgB9iBYMKJWxTIs+/5jr1fZk7hPUnIK1bsM1FP1bwNQFxn574t8ALwqYugIDqH79E1ExZUyWZLECJwZ6UzqVJPLR/aLDtmMFgti2t+x3+8AXF3TOjo5JM8SUL5CoRZ/Oz3BoLbLsqnLbqxr97GqWt4ZSgGEXciNuw7wwXh5FOAPvPDBOD2Lvwq8hFz8fZFCwDOixvWeflsu/j6EPSCQ5kPHgng6cg2go4mS/NsBUNWhtgBbwDQFsq2HqaK8fGNdh8Ge0uUGU9CKgggxYvyvPtknQPI30xet5sdZi/UM+QlYZZIcibm8BoSKGOYvW5lqTzxrshyJ0cTWbETZtt30DHkHE9dpqz/1usX1te0fVRR+EjRPtylKuZA6s4TzNbxERbStoUAR4xKxBVk7eTTRkeHmqpIYztGTZ6n78HN6Av8SgQqAdVosSkQpAhxGIN0X4IFvF1KsTmNzFUlMIfnCWb5vV4n069dEhzyISa28/XoHQFHoocM8MAv1cbO0GMgu4ENR42OnztH91Y9wilejkliA1LR0Hh40Qs/iD1qveLn4+ybPIbj4l2rVSS7+PkxY/kJ6Azd1RQ/qwa8dALQSqOKo1DFJh9EMRwsIFGLxuq0MHzfZRDkSo3nmvS/0NPsB7WhIqG+ExHLkAfqIGNrsDhq+IFQYVGJhqjzST0/r4BpAUzN0+LsDEK3PXM1vjgzDSUfLFRZO8xox/lemLFhpniKJYYz8bho/zFykZ0gS2udBBv75Jr2AKBHD8vd3l4F/foDN7qDOgDf1DHnJFB1mXNRC6Ixx8KluMesQ7BEAWge53m9/ypptwhsHEi/w+5+refN/3+kd9iza+bHE91CA/iKG9oBA6vT3hVhliQhl23YjX6kKouZt0NEUShR/dwD8nfeANaLGqWnpdH1+uJ5GMhIPsmrLbp58cyRZWboe5H8DvjNHkcQDNAbKihiWbf8QEbEeqRAr8QCKzUbN3i+LmtvQdooMRToAvk0m0B3BMsEAFxOvcW/fNzl26px5qiS62bznIJ2ffZfUtHQ9w46gNYqS+C5PiRpWe1y4RIDERyjbthvhhYuJmvcCAoyc35e2vO+IurSJ46oj7D95bgEBivDCeJPtGRnqf4ItohrNueKyOM/QBpiNDocuvmghlnzzIUUK5DNPlUSI3YeO07LXa1y6mqRnWApQH9hmjiqJB4gEziIQ/V+8fnM6T5hrviIroqqc3LSSc7u2kJWZQYEK1Shet6me2vqWZvM3o1j5yeui5u0Awz4IPusAqOpQW/K6TQ8rNgagUhdzdzPSQV0OyuiwurOt+lf4FvCungFxRQoy/6vhlCxW2CRJkpzYtu8w7fu/zYUrV/UO7Ql8a4Ikied4HPhexLD9/36jVIv7TZZjPa6dPMbclx/j7I4N//h69F3laTvyJ2LKVPSSMuNITbzEhKYlyUxLFTH/AXjCqLl90gFQl3bNcyMk5VegrecnVyeGngjtq3Sb4vT43NljQ6sU2FnPoKKFYpj/1XuUjos1R5XkjqzfsY/7Bg7Rm+sP8BnwvAmSJJ5lNtoTXbaExRSk15LD2ByG7v5anvTr15j0QG2unrh9bbaQvDE8+vtGv2iDPO/lx9g/V6jWzzWgICDkLeSET8YA3AhJmYQ3Fn8ARemVUjxlhFfmzp4s4DG0RjDCnDx7kWY9X2XznoPmqJLclvmrNtG235uuLP4zMSklSOJRooCWIoYVOj2e6xZ/gM3fjb7j4g+QcuUiaz9/x4OKzKNil56iphFAa6Pm9TkH4Mb69p2A+7ypQYUXk9a2K+9NDXfgBtoTxSE9g85fSqRlr9eZtWydOaok/+Db6Qvp8vxwrt/Q7cRvBh4BrLb7JNFPKwTLeZdr/7DJUvSRlnSVNaPf5rt7KzCmehQTm5di2XsvkHzR2MDifbN+ztHm8JJZoN45a0Z1Otn523gmd63HmOpRfNWwKHNeeIQL+7YbKdVtitZuTFgB4aPYHHeNRPE5B0BVxaNmTcRuw9bd2yLuwEWgPSDcPg4gOSWVB198n9E/TDdHlYRMp5NXRk6g3zv/IyNTuIbTXxxE+8PXvWUgsSRtRIyiS5YlX+m7zdYizLXTCfzyYAM2fP0hiQmHyUxNIenMCbZN+oLJD9Tm0iFj6oxcOXqAqyeO5GiXmniJzPS0234vy5nJ7OceZPHQpzm/ewuZqSmkXL7AwQXT+OXBhuybZZ3qqIrNRumWnUTN22DQ8b3POQBo/ZG9j43q3paQDfuBFsAlPYOcWVm8OmoiXZ4fzrXkG+Yoy6VcTLxGhwFD+OzHGa4MP4H2xChzN/0DBcFt3DJtuposRZxrpxOY+kQLrhy7/XFh8oWzzHn+YbKcup3b/3B0+Twhu+DIaBxBt0+i2DDuA22H4DY4M9JZ8Hov9sz40WWNRlOmTRdR06KAIV6h7zkAChZpa6dGeFtBDuxEi5MQbjn1F7OWrZrzvAEAACAASURBVKPx4y+z53CC8apyIau27Kb2g8+yZL1LGXtngGbAMUNFSbxJRUBovze+sXdCnf7NX4v/tVPHs7W7fGQfx1YscHu+oyvEHICite+57deznJls+2lstmPVrCz+fLOPZZyAwlXqEhwlnJYtFD+SE77nAKic9rYEAFXlhLc1CLABaI7OnQCAPYcTqPfI84yZNBM1mzM2yZ3JdDoZNm4yrXq/zqlzF125xBm0P3RdMR0Sy9NQxCgkOj8FKujrZ2YGoov/X5zdudGt+TJuXOf0FrECp/H33Hvbr19NOELq1ZzLwFjJCVDsdorXayZqLvQZygnfcwBAV5cU01CV+d6WIMgmtOOAC3oHpqal89LHX9PxmXdcXcByLXuPJNC0xysMHzfZ1VbMh4EGwG5jlUksQH0RoxINW6HYvHuL1rv4G8Hx1Ytw3uFc/x8oCnEN3Q+It5ITUKKR8M/TwIj5fM4ByFLVT9HRBc8kjoRdycw5RNU6bEOrOe7SrsX8VZuo2nkA436bo7dOfa4jPSOT4eMmU+eh59iwc7+rl9kN3APcOQdK4ssI3byL1mpkto5scXXxL1SpplvzHl0h9mxVoHzVO9YAiCxekqCIvMJzWsUJKFrr9kcat6Eg4HZbSJ9zAMLrzdmrgHAHBRO4gU15SGk7T8BFtRR7gbrAVlcGX0u+wXPvf0nTHoPYtFvWDLgdi9ZupVa3Zxg2bjJp6RmuXmYx2gJhiaMuieFEI9jVrXA1oY0CU3B18c8bX4YSd9iWF0JVOb5KLIYgu3lsdgdVuw/QN7UFnICI2DjCCxUVNa/h7nw+5wAAhNad/ZmqlUJN9PDUu8myNQyrPcu9Qy7vcRrtydLlcsbrduyj0WMv8tTbozl7UW+rBf/k4PFTdH7uXdr1f4t9R90KDfkWLcVHd11gic9QScQoOCof0fFlzNZyW66dTmBqj5a6F/+g8CjajZqMze5wee7ze7dx/ZyY7xvfOPtMyjr9Xtdzpg5YwwkoXK2eqKnQZyk7fNIBAMhTd/a3mVkZd4HaF+3GORctPuDWl16u/ecaCrNQGQNKx9CEkCph9We69ARtIa4D9wOfAC7t52dlqfwwcxHl2z/Fa59+w8VE3YkGfkHCmfP0e+d/VO08gDnLdRVg/DeZaLtaPQGXtw4kPkEVEaMCFaqC4vlK7UlnTjDtyVZcO3lM17ig8Eg6TZhNTFn31iTR9L+QvDEUqpj9UYPNEcB9Y3/3OSdAR+Cn2w6A666aBYisv+Ay8PXN139IXtde7wJ3MKzubEPSKyxOJjAILUvgGyCPKxe5kZrGp9//zvgpc+n/UAeefqQDhWKijdRpSQ6fOMPoH37nuxl/kp7hdjjKeeBBYJnbwiS+gFD+tjea3CSdOcHUHi2zLb97O7TFfw6FKrlfouWY4Pl/XMNWQt0AHcEh3Df2d2YO7EzC2iXCOv5yAgAqdHxMeJwR6HCi3P6Q+OwOgMQQpgB1gF3uXOT6jVQ+/mYKZdr2os+Q0ew6eMwQcVZj7fa9PPTyCCre34evp8wzYvFfhXaOt8xtcRJfoaSIUUwZtx/udGGFxT/lykXO7tokZJvT9v+t/OUE+MpOQH7x9744bj7ESwdAsgetuuKHaA2FXCYtPYPv/1hEja5PU++R55kwbb4r9e4txdXryUyYNp/aDz5LkycGMX3RaiMyITKBd4AmwEl3LybxKUqIGOX14Pm/FRZ/gGMrF6A6c25zodjtxNVvruvavuQEhBUoTGCYUL07B1DMnbl8+ghAYhipwGvACmACglXKsmPLnkNs2TOG10ZNpEOTunRp1YgW9aoRFGj9rmbJKanMWb6BKQtWsHDNFlLT0o28/CG0ro2y81Luw4b21JYjkUWFEgXcxiqLP4hv/xepWk9Pxbz/x5eOAyJi47h4QGhjtgRupAv7uwOQjmDHrVvsczNz0c4oP0YLSHM7CikpOYXJc5Yyec5SosLDaFGvOq0b1qB1/RoUjBHP0zWbY6fOsWD1Zhas3sTS9du5kWp4lmcmMAoYCqQYfXGJT1AQgfuRIziU0Oj8poux0uKvOp0cX7NYyNadNENfcQIii8aLOgByByAbEtBRLEFVVF8o72s2V4DewCTgK6C0URdOTEpm6sKVTF24EkVRKF+yGA2q3U29quWpW6U8JYsWQvFA5LMzK4sDx06ydtte1mzdw+ptezhy4oyZU24C+uBiDQaJ3yD02BpeKNb0DAArLf4Ap7etJTVRrGK5nvP/2+ELTkCewsK1AGLcmce/HQCV+Sg8LWquZCnWKDNsDZaiRZk+ixYfYGi8iKqq7DmcwJ7DCYyfqqX+hIeFUOGuOCqVLkHpuFhKxBYkrkhBihaKISYqQpdz4MzK4tKVaxw/c55jp85x/PQ5Dhw7yc6Dx9hzOMHobf07kQ4MQEtTdSu+QuIXCD3WB+d1656eI1Zb/EF8+z9PwVhiDGiPbHUnIET8iEP/Wcgt+LUDYMMxMovM3sDt+0X+k1OhAcokszX5GOlo9QL6YOBOwJ1ISk5h/Y59rN+x7z/fs9kU8kVGEB0VTlhIMA67nTyhIf///WvXk8lSVZKSU7iUeI3LV5PMlivCGmCit0VILIPQzVrHzV83Vlz8QTz/P75xW8N2R6zsBOiIcZA7AHcipN6MY9fXduivKOo3ZH+enZ6l0l2pOeuGp7T5GDmH5ppMVpbKhStXuXDFp4rkebtnhcRaCIV2B0VEmTJ52rUrTOt5rwuLfxSdJ86hYA6Fd1zl+tlTXDwo1vPK3e3/f6M5AdP4o38nTqxfJjxOzcriz7f6EhKd/44dCd0hOFI4PkroM3Un/D4NME+9Wd8p0A3ljt3wjthQmofXm73Mk7okEkmuI0jEyBEUkrORC2z46gMSj+vrLG324g9wdMVcEGg5bg8MolidxobP7wgO5f4vp1OsThNd41Snk8VDBuDMMP44UcdnQOgzdSf83gEACK07e2qq6iwFai+0ynfTQP1CUdRuoeEh5UPqzlrlbY0SicTvEcpIsgfqSVwSZ9+cX3XZe2LxB/Ht/6K17yEg1KWipTniqhNw/dwpTm9ZY7gee6Dwuu6WA+DXRwC3kq/uvGtoi/833tbir9StXI51tzm/9zdKxxXh4HHZrE+iG6EiGPYA42tlONPTSD6vL9OlzcgfTV/8nelpnFi/XMg2vnFbU7X85QT80L4K104nCI+7euKIbschJzzlAOSKHQCJZ/j6nefZ9NsYnnusI0ULmRvJ7GlKx8UyuM9D7J01nv8N1tdmVCK5iVAJSVVgO1wv9sAg0epy/8/qkW+QcuWi4Vpu5eSGFWTcuC5kW6JRa1O1AKwfN0LX4g8QYkLNBjVLOGnIrewi6QBIDKVSmRJ89FJvDs79liXffsSAhztQvHABb8tyiTIlivLyk11Y/8tn7PrjK4YM6E7JYm4XSZTkXoQOi804Uwb9BXQu7N/B7z3bmOoEHF0u1pk8b3wZoorfZZoOgNWj32Lj1x/pGhMQEkbRWo0M1+JMFy5E5lbFslxzBCDxLDabQoNqFWhQrQKfvtqXfUdPMH/lJhau2cK67XtJTrFej4Co8DAaVL+b1g1q0rpBDUrEFvS2JIl/IbSyZ2WY0xG67sC3OLp8nvATN/ztBHT+Zh4hJtQnOLZygZCd0dH//8aVxR+gTv/BBIUbn7XhzJAOgMSPKBdfjHLxxXj+8U5kOp1s33+EtVv3sm7HXnYcOMqh46dxim97uU2Aw0G5kkWpXKYkdauUp37V8lS4Kw6bzfM92CW5BiGvV88CrYfokmVpP/oXZj3Thcw0cQfcLCfgytEDJCYcFrI18/zf1cW/Ypee1Oz1kgmKIONGsqipdAAkpiMUehsYIPZxctjt1KhQmhoVSvP0o/cBkJqWzp7DCew9ksDRk2c5duocx06fI+HMBS4lXnWpq2BEWCj5oyMpVrgA8bEFKRFbkPjYQlS4K45yJYsS4HDt4+8QHxfq0gQSfyVRxChFsCSuK8Q1bEmHMdOY9fQDup2AaT3v5YFv5hvmBIhG/weE5qFItXqGzPlv1vxvqEuL/92de9B86FjTSjanXBH+DFx2Zx7pAEhEECpLFRrsekBqcFAg1SuUonqF27duSE1L5/LVJC4lJpGRmUmm08n1G3/31AkPC8VusxEUGEC+qHCiIyOEHRLdWsU7GkabIkDiqwgdpqcmunVPz5G4Bi1ccgIu7t9pqBNwdIWYAxDXoIWeqHhh1vxvKBvGjdA97u7OPWjx7pcoNvNC6FKvCjsAbnmL0gGQ5EQwIFSVIiI8zDwRQYEUKZCPIgXMK5MqSpT4z+l9sRIrIXSzTrl8p5plxuFtJyDjxnXh/Hkzzv+tvPiD53YAZBaAJCcqiBjFREUQEmROAROrEVtQ+MYXg5u1uiV+hdDKfv3cabKc5leR/ssJcASJtEr5m7+cAHeyA46vXiQW6a4olGhobPqf1Rd/gGunjomanndnHukASHKijohR8SK+mernCmEhwcRERYiYKgj+/iS5gstAjl2qspyZXD97ygNyvOcEHBXs/legfFXCChiXeusLiz/AtZPHRE2PuzOPdAAkOSEUfVOpdAmTZViLimXiRU3rm6lD4nMcEzG6Kr4AuI3HnQBV5fgqz6f/+crirzqdJJ05IWp+zJ25pAMgyY5goJ2IYdVy5hbpsBpVygo7AJ3N1CHxOY6JGF06JNYdzyg86QSc37uN6+fESmnrLV50J3xl8Qe4cvyQaDGoFOCcO3NJB0CSHfcjGMneqEYlk6VYi8Y1K4ualgPqmihF4lsIteO7eGCX2Tr+gztOwJTHmpN8UWwtEk3/C8kbQyEDehH40uIPcOmg8Ht/CMHy0ndCOgCS7OglYpQ/OoqKpePM1mIpGtWsqKeOwFNmapH4FDtEjC7u32m2jtsS16AF7T+fotsJuHxkH9Ofakfq1ZyD0o8Jnv+XaNQaxW7XpePfrBn9tkuLf8UuPb2y+IMu50/os5Qd0gGQ3InGQEsRw47N6qGYVBDDqkSEhdK0ThVR8yeAu02UI/EdhG7aF/Zt11MP3lBKNGzlkhNwcf9O5r/SI1ublCsXObtrk5gON7f/983+hQ1ff6h7XMUuPWk+dKxXFn+Aszs2iJpKB0BiCgrwm6hxl1YNTZRiXbq0Em4CYkfH71Pi1+wBcszxc6ancX7PVg/IuT2uOgHHVi7gzLZ12X5fdTpzvI5itxNXv7muuf/N2s+H6h7j7cVfdTo5s13YAXD7nEg6AJLbMQEQyusrVbwIjWsJn4f7FV1aNdRTFKgC8JqJciS+QSogtL9/eutak6Vkj6tOwIl1S+/4PdHt/yJV6xEc5XodrWunjnP1xFFdY7y9+INWcjn9+jURUxXY6O580gGQ/JvKQA9R44fbNsl12/9/ERYSzH3NdNUofwcoYY4aiQ+xWsQou4XUU7jiBKTfoZmR6nRyfM1isXnd3P7PSBFupgNYY/EHOLF+majpPgQLS2WHdAAkt1IA+B0dn4tvpy9kz+EE8xRZmLXb9zJr2Xo9QwKBXxFsriTxW4QcgJMbV5CZesNsLTmi1wmIji9726+f3raWVMFGR+7m/0fExgn3D7DK4g/i7ZER/AzlhPd/YolViAEWAboS+k+eu8g9j7/EwtWbzVFlUWYsXkObPm9w5WqOhd3+TW1gHtIJyM2sFDHKTE3h5EYhU9MRdQKCIvJyV4v7bvu9hLVLhOYKL1SUmDIVdWu8lYCQMMq06ZqjnZUWfz39EYBVRszp/Z9aYgWKA4sBl5L5k5JTeOD5YUyaLfYH7uuM/mE6Dw8aQUqaULGO29EQmIVsFpRbOYVgANfhxbNMliLO/zsBwbfvDabY7bR890uCwqNu+/0rR/YLzRPfuK3LGm/lnkEfEFms5B2/X6lbb8ss/gDHVi0UzfxQgYVGzOmRn3zY9lbx7+9o0/j9rS0bvL+lTX5PzCkRpimwAe3s32XSMzLp9danDBs3GVV1qzaFZXFmZfH8B+N4ddREsrLc/hmbAFuRvQJyK0LRcIf+nO6RxkCilGjYim4/LaVI9Qb/+HpM2Up0Hj+HUq063XFsQKjYppdR1f9CovPz0M8rKNf+IWyOv1t4h+UvRLMhn1tq8QfYP1c4UWgbcMaIOU2L3lJVlA93tH5M1SKfy9/yrSwFlmNT33yt0kLh/Q6J4UQDw4C+aGlqhtGjY0vGvDlQT6Ecy5Ocksrjr3/MbH1n/iKkAZ8AIwB9kUsSX6YZ2q5bjnQaP4e4Bi1MlqOf5AtnuX7uJCHRBYgoUjxH+32zf86xTkBovgL0/PPAHXcZXCX9+jUSjx/CERJK3hJlLLXwg7b9/1XDomSmpoiYjwAGGzGvKb+FrzbVCBixo9VkFb7nn4s/gE2FpmqWsmLEjlYvmDG/JFsCgGeBA8AADF78Ab6b8Scdn3mHa8neD2AygvOXEmnV+3UzFn+AIOANtKjex5HHcrmFlYBQRNzemZNMluIaYfkLUbBiTaHFH6B06wdyPNuv3fc1wxd/gMA8ERS4uzrRJctZbvEHOLhwuujiD/CHUfOa8pu4HJBvtILyUA5mdlRl5IhtrR40Q4PkP4QBfYDdwGeYfP68aO1WmjwxiBNn3c5U8SqHT5yh6ZOvsGn3QbOnKormMO8HnkNrxCTxXzKA6SKGhxb+LlRi1+rYAwK574vpRN/172dCQFGo2eslqnYf6HlhFmDX1G9ETY+iHdkaguFHAO9tb13dBpt0XPusA7XUoCoL5fanOUShPfE/ixeCzmILxvDH50OpVKaEp6d2m5Wbd9Htxfe4rD/S3whOoh0NjAf8YytF8m9aIhjM1eSNT6n66ACT5XiGzLRU9s2cxIkNy0m7lkhUXCkqdHqcAuWreluaV7hy9ADft68MYrFTH2JgQTHDdwBsqL3Q51gUckIHo3VIiAHeA46jFaBxefG3OQKp2mUoefKX0D321LmLNHvyFRav815ZU1f4dd5y2vV/y6XFP2+xSlTs8AqK4tafV1FgNJrH/yoQ7s7FJJZkKYLtXLdP/hI1K8tkOZ7BERRMxa69aPPxD3T8aiZNBo/KtYs/wLafxoou/qDVETEMwx0ABaW+3jGqqjTI2UoiSAFgKHAYLVAkwp2L2QNDqNf7K0o2fJQmL0wlpqT+9pzXkm9w38ChjJ8q1gbU24yZNJMeb3xCWnqG7rEFyzWi0dM/Uqb5U9R8bCSKze0QiwLAB2g7Ah8g2J5Z4hNkoh375MiVowc4unyuyXIknib16mX2zPhR1HwzWuaQYRjuAKjak6c+FGRqoPsURzvbPwYMwc2FHyAksiD3PP0TBctpzX4CQyNpOOB7ilVvr/tamU4nTw8fy4sffW3ZNEFnVhbPvf8lL338tUtpfiXqdqN+n/E4grT+AMWqt6d+n/EEhEYaIS8CbSfgONr7XNiIi0q8zgQEe7pv/na0yVIknmb7pC/1lC2eYPT8JuwAcFH3INX9msa5mFJoH4yDaOf8hoTQ5i9Vh2YvzyBv8X+WB7A5Aqn52EhKN+3l0nXHTp5J77c/JT3DOrnNANdvpNL52XcZ99sc3WMVxUbF+16l+kPv/eeJv2C5RjR9cRqRseWMkpoH7X0+CIwCihh1YYlXOIh2FJAjpzat5OTGFSbLkXiKtKSrbP1xjKh5MvCz0RpM2AFQXcjtVw0pa5jLqAD8AOwFeqHVmXcbe0AwFTsMouGA7wkKv/1mjqLYqHT/a7dd8ET4adYSOgwcQmKSNeI+z168TMverzF/lVif8lv5yyEq06z3HW3yxMTR9MXpVOwwCJs94I52OgkDXkCLEfgBzRGU+Cafixqu+WyImTokHmTrD5/rye74FrhqtAbDHYAslIkIbmnd5KxDYbbROvyYqsAUtJaijwHGVNtRFGKr3EuLV+dQpnkfoYW9RN1u1O05Fnug/k2HZRu20+zJV7yeJrjncAKNHnuZLXsO6R4bGBZFI8EjEZvdQZnmfWj64jQKlNEdJpOtDLTPwR5gItIR8EVmotXlyJHTW9ZwfNWfJsuRmE1q4iW2/vA/UXMnWkCw4ZhSCXDE9lZjQRHLWVHVh16vutDQyEY/pQ7wJtAOg9+3/KXrUaHt8+SLr+7S+CsJO1gzvi9pSfpPfwrnj2bG50OoWk5XDyJDWLZhOw++9L5LOxFhMcVp0HcCefLHuzT3ub3L2TP3M66cEGoNrwcn8AvwPppTIPEN+gFfihhG31We7jM2YbP7T6XN3MbS4c+xffI4UfOpQM6djVzAFAfgq001Ai4HxPwIZFfkJwuVV16vumCkGRrcxAbUA1oDcWgBV96Kvg4FYjEgqO/fBASHExSZH0dgqNvXyspMJ/nicZwZQs0s/oHNZqNk0UJE5HFfhyiXryZx/PR5lwIS7YEh5ImJQzHgBpyRmkTatQtkppmS6n8FOA2kmnFxAc6jpbkdQuuAuMVLOnyBELTfk1BMR9O3PqPKw/3MVSQxhUuH9jCpUy3RHg8qWgdR/eeTAniiF8DrwK0RUFkorFCdWW8OrvanIT2NDSQSeAXtTL2gl7VIJP5GAjAW+B/ec0qszEBAKCosOCofT8zeTki0TKDyKVSVaT1bc2L9ctERM4A7d1hyE9McgFv5aGebu5xZzjhFtaXblawDg6osPO+JeXXSB61wjv40RolEoocTwPPA794WYjEC0XpCCJ0rlWv/MPd+9J2pgiTGsvv37/jzzb6i5ipQDdhulh6POAAWx4EWYJE7i1BLJN5BBT5CK1blHyXujOFJQLgw/P3j/iDeoPa5EnO5cek8P7Svoify/2fgERMl5XoHwAHMAuRfkETiHb4FenpbhIWwAeuAWiLGeQoWofv0TQRHebzNh0QPqsrMp7twZKlwwlsKWifd4+aJkq1HRyEXf4nEmzwJvOxtERYiC+14RCg69fq50yx6u7+5iiRus3HCJ3oWf9Ca/pi6+IMJveB9iC5o3dYkEol3aQ78idbvQKLFSJQFKokYXz6ynzwFilDgbtfSeCXmcnrLGha+3gtVFT7pOg48itYy2lRy6xFAAFqOtCyaIpFYg3VAffQVEfNnYtCqfAoFJdsDg+j20xIKVtTfrEtiHmnXrjCpc22unU7QM+w+tKNp08mtRwC9kYu/RGIl6qIVuZJoXAQGiRo709OY/dxDpFyWbVUsg6oy75Ueehf/SXho8Yfc6wA85m0BEonkP3T3tgCL8T2wUNQ46cwJZj37IJlpssSCFVjx8ascWzFfz5DzaP09PEZuPAIoBJxC0PnpcH9nHn38SQoUkHWBJL5BWloagQEBKDbv+vcnTyQw/quxrFwu1OwO4BpQANBfTtJ/KQLsAITD/Eu3foC2I3/y+vufm9k04RNWjXpDzxAVuB8PPv1D7nMAwtDyjgeLGA8b8TEDnvGoQyaR+BWqqvLW64P4coxwL5On0ZoaycfYv+mEzqJJNZ58nkaDPjRJjiQ79sz4kYVvPAX6yoyPRfvsexR/dwBCgQZAk5uvWmgBgDlSt14DZi9chqL4+69IIjGX9PR06teszNEjwh0XU4G1wDJgKbABuSswDhAuIQdQd+Bb1B34pklyJLfj6PJ5zHqmK1mZugL4d6DFwKSYo+rO+FsaYChwD1phkWFofbZ7AI2AYuj4eXv1HUDdeg1MkCiR5C7sdjtHDh9iy6YNokMcaOVwm6LVCXjp5r+Lo+XJn0Xrepib+BNohdYYTIiTG1dgDwwmtoa8j3mCU5tWMvPpLjjTdfmqiUALtPN/j+Pr/SQD0Z7wm6I94de5+TW3iYiINOIyEokEiMqb153hIWi1Aprf/P8NYDX/3CHwd4cgDa12ySa0OAkhVn/6JskXztD4tU9kTICJHFk6m7kvdSczVddDvIr2sCq8NWY0vugAhAEPoAVMtATCvStHIpF4mFC0v/2WN/9/CZiPdk4+G0j3ki6zOQF0Q8sMEH7Q2fbTWNKSrtJy2DhsDqETUIkOdk2ZyOJ3n0F16vZB3wammyBJGF9yCSsCXwNn0NJjOiMXf4lEokXIPwpMQ6smOBIo4U1BJrIceAKdBZP2/vETM/reR3pykjmqcimbJnzCoqEDXVn8vwWGmyBJF77gANRA64m8A3gKuehLJJI7kx94ETgAfAeU9qoac/gFGKp3UMLaJUzv3U4WCzKALGcmS4c/p6X66Yv2B1iEzoBOs7CyA1AIrS3mBrTtfhmOL5FIRAlAe1LeBXwMRHhXjuG8i9bMTBdntq/nx/uqkbBmsQmScgfXz55i6hOt2D55nCvDtwFd8UCdfxGs6gD0APahRQBbVaNEIrE+gWjdBvcBbb2sxWheBsbrHXTj8gWm9+3AurHDXNm6ztUkrF3C5K51Ob1ltSvDd6FF/Ccaq8p1rLa4RqMFRXwLyDB8iURiFIXRAgTHoWUV+AMq0B/tSEDfQKeTdWOHM71vB27II4EcyXJmsmrkYH7v3ZYbl1zK2NuPFrR6yVhl7mElB6AssAboaO408iRBIrEs5hbeUtDOXtcAcWZO5EGcaD0UvnNlcMKaxUzqVFNvr/pcxZVjB5nyeAs2TRzpynk/wHa0+jRnjVXmPlZJA2wFTMWEAD9FsRFWsAyRRasSUbQqlw4u5/zueUZPI5FIDCC25sOEFyrP1RNbuXpyGzcuHXX1ppsdVdHaD7dBO5P1dZxo+eSJwPN6BydfOMvMgQ8Q36QtTQd/SkTREkbr80mynJls+XY068YOc6fB0ibgXiz25P8XVnAA2gNTgGAjLqYoNkLyFiM8thJRxWsQWbwGjqC//YrLh106u5FIJB7A5ggi+q6GRN/VEABn+g2un91LYsJmriZs5vqFg0Y5BIXQigi1RSs77OuoaJ3kLgPv4MJW59Flczmxbhm1+75KjZ4vYg8wpKaaT5KwZjHLRrzE5cN73bnMHOAh4LoxqozH2w5Ae7TiHW5VpwiOKkre+DpEFqtOZGwV7EFhxqiTSCRexR4YSuRNRx4gIyWRaye3k5iwmcRjZ3o8zwAAIABJREFU60lLcquCahSwAGiG9qTmDwwDjgITgCC9gzNTb7DmsyHsnTmJxq+PpETDVoYLtDKXj+xn1cjBRhyJfAE8i8UrVHrTAaiNFrzi0uJvDwqjQPnWFKzYjtCYksYqk0gkliQgJIp8pRuTr3RjAJJO7+Lc7rlc3L+YrEyXCgCGowUHNgAOG6fUq/wEJKDtrAqXDb6VK0cPMKNPB4pUb0C9Z4ZQrE5jQwVajasnjrDui/fYN/tndzMjMoFBgHD7S2/iLQcgFpiJVtZXF/bAUGJrPkzhKp3kk75EkssJL1KR8CIViavfm1NbfuXstulkOXWnWBdE266tBfhLqbwVaEXUpqL1SHGJ01tWM+3JVhSp3oAaPV+gZJN2ftVT4MK+7Wz+5lMOzJ+qt4Pf7TiHtuW/zG1hHsIbDkAA8CvaH50u8pdrSYlG/QgIizZelUQi8VkCwqIp0ag/hSrfz5Elo0k8vlHvJcqibZs/aLw6r3ESaAx8ipYu6DKnt6zm9JbV5I0vQ5WH+1H+vkcIinCrwZPXyMrM4MiS2ez49WsS1i4x6rKr0T47p4y6oCfwhgPwDtp2mzCOoHDuajmIfKUamSRJIpH4A8GRRajQ6UPObp/JsRVj9e4GdAMWo/Uc8RfSgAFoDYTGAzHuXOzK0QMse/9FVo0cTKmWnSh/36MUq9cUm93b4WQ5c2HfdvbN+pm9Mye5mst/OzKB99Dq+mcadVFP4el3rRra+YgwIdHFKX/fewRHFTVJkkQi8S8UClW5n7ACpdk/+23Sk3VlYH2EdhzgU09yAsxAK6v+LVratVtkpqWyb/bP7Jv9MyF5YyjVsiMlm3WgWO17cASHui3WCNSsLM7t2sSRZXM5OH8qV44dNHqKI8BjaHUlfBJPOgA2NA9UeM6Q6OJU7PIZAaFR5qmSSCR+SXjhCtzd5VN2TX2ejOTLosMigf+htRz3N06j5aQ/gdYx0ZCz1JQrF9n52wR2/jYBR1AwsbUaUaxOU4pUq0fBijWwB+pORnANVeXS4b2c3rKGU5tWcnz1IlKuXDRjpky0IL8hwA0zJvAUnnQAuqMFpQgRHFmEux8YJRd/iUTiMiF5i1Gxy2h2TXmOjBtXRId1BprgQ8FcOlDRqgbOQ4sNeAgDy6NmpqVyfNWfHF/1JwCOoGBiylYmpmwl8pepRHSp8kTGliBP4aJuHRskXzzHtZNHuXx0P5cO7OLigV2c37ON1KvCjp6rbEarJrnZ7Ik8gaccgCC0s38hAsKiufuBUQSG5TNRkkQiyQ2E5C1GhY4fsnPKs2RlCFd0ew+dsUo+xjngEbR89c+A6mZMkpmWytkdGzi7Y8M/vm6zOwjLX4jQmEKEREUTHJWPgNAwFJudwDxa4bbM1BSc6Wk409NIvXqZlMTLpCZeIunMCTJTU8yQmx3ngDfQjlCyPD25WXjKAXgMKCFmqlCqxSCCInQnCUgkEsltCStQmvh7BnB4sXAH3fpoBYIMCxO3KKvQ0h+fAIYCxT0xaZYzk6SzJ0k6e9IT07lDMtqR0AfANS9rMRxPJXQ+I2pYuEpH8sbXNVOLRCLJhRSs1IHokvX1DHnBLC0WIwvtybYU2va2vwVAukI6WjZIaWAwfrj4g2ccgMZAZRHDkLzFiGvU12Q5Eokkt3JXi0EEhAh3Gm8L5KYyoxloi14poB9wwLtyvMIVYARat8i+wBnvyjEXTzgA3UUN4xr1w+bwUMSoRCLJdQSERlG09mOi5jbgYRPlWJVU4CugPFp79iVowYP+zH7gObQjkMFYsHWvGZjtAAQimE4TXqi83u05iUQi0U2hyvcTmCe/qHludAD+Igv4A2gOlAE+xL8WxhTgR7Rd6vJoZ/2W7dxnBmY7AI0AoXqRhat3NVmKRCKRgGJ3ULhKR1Hzu8ldxwB34hDwGlofl0Zoi6Vh5fQ8SBpa86cn0FpCP47WN8Hfdzhui9kOQDMRo4CQKFnmVyKReIwCFdui2ISToJqbqcXHyELLHHgOKIp2j/8I2OlNUTlwCpgIdEXrQdMB+AE/DezTg9lpgE1FjPKVaaznj1EikUjcIiAkiqjiNbhybL2IeTO0KqaSf5IBLL35ehUogrY70ABoCFTCO/1mjqA151mN5qzs9oIGn8DMN8cOVBExzBtfz0QZEolE8l/yxtcTdQBMKZLjh5xG6/T6683/BwMV0ByBimhxBPFoNWHC3ZwrHTgOHEVb8Heh7ULsRIvklwhgpgNwF5BjVwjF5iCiSCUTZUgkEsl/iSxWTdT0r3uZT9d99wKpwJabr38TDRQA8t3yCkB7cIy4aZNy8xoAF4FLt7zO4UcV+byFmQ5AeRGjkLzFsAdao3uURCLJPYREa/ceZ3qO67odKAtsNV9VruHyzZfEi5gZBFhYxCg0RgbYSiQSb6AQmi9e1LiImUokEm/gdQcgOKKQiRIkEonkzgSJ33+E7mcSiS9hpgMQI2Ik2/1KJBJvERgWLWpawEwdEok3MNMBECq47QiOyNlIIpFITEDH/UfeqCR+h9cdAHtgmIkSJBKJ5M7Yg4TvP8IdhCQSX8H7DoD4H6BEIpEYikP8AUQ6ABK/w+sOgI4/QIlEIjEUHTuQ0gGQ+B1edwDkDoBEIvEW8ghAkpsxsxCQjAGQSCSWRscOpAwCNI88aJUA7Wgt5P96U9KB5Jv/TkQWDjIcsxwABcFaz/IIQCKReAt7UB5RU7kD4DpxaP0ASvF3L4A4ID/awh8keB0nf5cCPgEcu/n6qxfAfiDTMNW5ALMcgDA0by5bbI4gFLvsAiiRSLyDQx4BGE1BoD5aN8BaaAu/UcVe7Gj1GApw+1LzacAetN4Dq4C1aE6B5A6YtfrK83+JRGJ5dBxBhqPFTMkGNP8kBGgCtAFao3X88xZBQLWbr143v3YeWATMAxbe/L/kJl51AOT2v0Qi8SaKzY7NEURWZlpOpja0s+pr5quyPOFAB6Ab0ArNCbAqBYBHbr6ygA3Ab8AU4KQXdVkCs7IAZACgRCLxCWQmgBA2tCf8KWiteCcB92Ptxf/f2IC6wCjgOLAS6MnfQYe5Du86APIIQCKReBlZDChbCgBvAIeB+UAXfGvRvxM2tDiFicBp4EugslcVeQGvOgDyCEAikXgbHQ8iuSkVsBTwGXAUGI4Wue+vRAD9gO1owYMd0DLZ/B65AyCRSHI1jkCZCngLFYHf0aLnnwVCvSvH4zQAZgKb0RwBv8YsB0DIU3aI5+BKJBKJKcgYAECL3p+M9hTcCXOrxPoC1dAcgfVASy9rMQ3vpgHKIwCJROJlcnkMQBTwNvA0EOANAQ5HIBFh0QQGhOBwBBJ88/3IyEwjLf0GTmcGSTeukJqWnMOVTKE2WvrgXOBF/KyugJcdgNy2uySRSKxGLt0BUICngPeAGFMnUmwUiilBfNHKFC9cnoIxJSiUL5780cWICs9PSLBQ0VjSM1JJSr7MhcsJnL14jHOXjnPq3AGOntpJwpm9ZGamm/ljtEXbCRgDDAGSzJzMU3i3DoA8ApBIJF4mF3YELAuMBxqZcfGQ4HAqlmpA+bvqUeGu+pSKq06IAff6wIBg8kUVIV9UEcqVrPuP72U6M0g4vYc9h9ey98hadh5YwaXE027P+S8CgBfQMiH6A3OMnsDTyEqAEokkV6OjHLCvZwHYgVfQtvyDjbxw0YJlqFOlPTXvvpcKperjsHv2NMFhD6BksSqULFaF9k36AXD01E4271rAhp1z2XN4LapqWBHHYsBs4Ge0oxOfbVIkKwFKJJJcTS7ZASgB/IiW+24I+fMWpUmdh7mnRldKFqti1GUNIz62EvGxlejS+mUuJZ5m5eZpLN/4CweObTJqioeBe4AngMVGXdSTmOUACHnKcgdAIpF4m1zQEfBhtEI3buu32xzUrtyW1g17UaNCS2y2HHu+WYJ8UUXo2PwZOjZ/hqMndzB/1USWrv+Z5JSr7l46Fi1IcCQwGB/rRujlIEAZAyCRSLyLQzwY2dccAAdaEZ9X3b1QSFAeGtd+iM4tnie2YGn3lXmR+KKV6f/QZ/To9B7LN/zC74tGc+rcQXcuaQMGAfXQ+iOcMUKnJ/DyEYDMApBIJN7FT7MACqE1vXEr0C80OIKOLZ6lY7NnCAs1qquvNQgJysO9jXrTskEPlm/8lcmzh3PmwhF3LtkQ2IQWJLjWEJEmI48AJBJJrkbHTqSvOAB3o0Wox7l6gcCAYO5v/gwPtHyR8LBo45RZELvNQbM6j3JPzW4sXvsjk2YPcyeDoAiwFOgB/GKURrMwwwEIAQJzMlJsDmyOIBOml0gkEnH8LAugGTANrcCPS9Su1Ja+D46iUEy8cap8AIc9gNYNe9Kk9kNMXTiSqQtGkp6R4sqlgtCqKpYDhhqp0WjMKPcoWANAPv1LJBLv40dZAA+idexzafEvnL8k77+wgCEDp+e6xf9WggJDebT9W4wbso3qFVq4ehkFrWDQGCzcWMhrDoAsAyyRSKyAzRGITSxv3YF1m+M8CUzChXK+NpudB1q9yBdvb6FK2SaGC/NVCsaUYNizc3ixx0R3jkEGAt+i1WCwHGY4APL8XyKR+BQ+vgswAK2vve5FJjqyEO89N4+enUcQGBBivDI/oHnd7ox9azNVyzdz9RJPoBUNMivmzmW8eAQgUwAlEok18OFMgF64uM1crXxzPn9zE5XLNjZelZ+RL6oIw5+dQ68HPnS1ymFX4Hss1mXRi0cAVt1Jk0gkuQ0d9yMrOQBdgK/QufjbbHYeaf8mw56dTVR4fnOU+SGKYqNzy+cZ8eJCoiMLuXKJR9B2aiwTEyBjACQSSa5Hx46kVRyAtmjbyrq2/SPD8/P+8/N5tP1bKIqlHkZ9hgp31eez19dRLr6OK8N7AB8Yq8h15BGARCLJ9eh4ILFCKmBFtDQzXWfKBaKL89HLS6hU5h5zVOUioqMK88FLf9K41oOuDH8FLTjQ68gdAIlEkuvRkZbs7R2AYsACvTriitzNJ68sp2jBMuaoyoUEOIIY1PM7OrV4zpXho4E2BkvSjdeyAGQdAIlEYhV8JAsgGPgdrdqcMGXja/PhS3+SL0rXMIkAimKjd5ePeLLTe3qHOoBfgQrGq9InwmjkDoBEIvEpfKQj4JdATT0Daldqy+t9JutK8UvPSGHbvqUcPbmTxKRzpGek6dXpk9htdiLD81MoJp6ad7cmUkeAZJfWL2Oz2Zk47TU9U4YDU4A6wHV9ao3Bew6A3AGQSCQWwQc6AvZDCyATplKZe3i9z88EBgQL2SclX+LXeR8yb+UEUtOSXZDoP9hsdmpVbMMTHYcRV0TsIb1zyxe4kZrEz3N07QZUAL5B6yLocbwXBCh3ACQSiUWweB2ACsAoPQNKxFbkrX5ThBf/3YdW0XdoFaYv+izXL/4AWVlO1u+YzTPDazFj8efC47p3eJsOTQfona4r0EfvICPwXhCg3AGQSCQWQUdHQE9nAfzVWEZ4D79QTDzDn5sr3L53y55FDB7dhqtJF1yU6L84szIZP+VlfvjjbeExfbuNpGGNB/RO9Sla8yCP4kUHQKYBSiQSa2DhLIARQBVR46iIAgx/bi55IwoK2Z+9eJQPJjxKZma6q/pyBb/N/4gVm6YI2SqKjZd6fKM33TIUF3s5uIP3sgDkEYBEIrEIFs0CqAcI55gFOIIYOnAGhfOXFJ7gm2mvk3wj0RVtuQpVVRk/5WXh45HAgGDe6j+V2IKl9UxTHa1GgMeQRwASiSTXY8EYgEBgPDru0U91/YjScTWEJzh5dj9rts1wQVru5PLVs/y55nth+7CQSAb3+UVvk6W38GBqoNEOQAAiZ1WKgl0wOEUikUjMRseOpKccgNeBu0WNG1bvTLvG/XRNsHrrdFRV1asrV7N663Rd9iViK9Kn28d6hgQB4/BQvwCjHQAdGQCW6YcgkUhyORbbASiGjq3gQjHxPPvYON2T7D2yTveY3M7eI+t0O01tGj1F09oP6xnSCHhU1yQuYnQdALn9LxFmx/ZtfPrxCFYuX8qVK5c9OndwSAjlK9zNk7368shjPVAU6ZDmZuwBwSg2O2qWMyfToJsvM6vjjEILCssRhz2AQb2+JyxEv19yOfGM7jG5nczMdK5dv6irSBDAwEfHcDBhCyfP7hcd8gEwHTA1J9M7DoAMAMz1zJwxjb49HyM93TvRx6kpKWzdvImtmzexbMkivvrmR2w22R0t96JgDwglMy1JxDgCMCtn7h60Nr9CPNFxmKtd6UhJFfpZqdD2BYLyRLs0hy+xZ+5o0q5fytEuOfWabgcgJCgPL/X4hpc+uoesnJ1MgFjgVUA8/9AFvOIAyE6AuZuTJxLo/1QPry3+/+b3qb9So1Zt+g10qamHxE+wB4WJOgCRmOcACLeKLVOiJh2bP2uSjL8pWr0deWLiTJ/H2xxcMkHIAXCVMiVq0vaep5i9TPi45kVgLHDOLE1eiQGQOwC5m28nfk1qSoq3ZfyDL8d8JgOicjkWqAXQDi31L0cc9gCefWwcNpvdJCkSM3j8vneIiiggah4G6GouoBejHQDZCVCSI9u2bPK2hP9w8kQCly7KSmi5GS/XAlCAIaLGHZoOID62kgkyJGYSFhpFz84j9AzpBxQ1SY7cAZB4HssG3FlVl8QjeNkBaAvUEjGMyBPDw20HmyBB4gma1XlUT5XAYOAls7R4xwGQOwC5mqrVdXU09QjFiseRL1+Mt2VIvIiXjwCEb/LdO7wlXOdfYj0URaH/Q59htwmH4PUCTHnDvVgHQJJb6dHzKUJChduveoT+Tz9n3Z0JiUfQ8WBidEOgGkBTEcOC+eJo3aCnwdNLPE1ckQo0qSNcGyAc7SjAcOQOgMTjFC1WnHETvicoKMjbUoD/a+8+w6uqsgaO/28CISGNjhTpoCJFBGzYxQpYxjaOfdDBGQvqiGVA7KMiUnQsSHXUQUWsCAiKCFIGCUUIUqUFSCAJIY2Q3OS+Hw688jDCXaffe7N+z8O3dc7eM96cs84ua8N1N9zE3ffc53c3lM9qyE8EdHoEQLz95E99h1CjRoLDzSs//KnPYGrEi8/+uQ/nd+35tAhQ/oemYlTfK69h1txFXP2H630Zek9MSqJ7z9N4Y8wE3h7/b60BoPyqBlgP4zz4sJo2bMuFp3tSIE554LgGrbnwjFuk4c0wdok4yqdKgJE1/Kv80alzF8b/e7Lf3VAKgPgE8XPJyQTgNoyFXmFd3fsB3fYXY6695GFmL3yXUKhKEn4X8IWT7esuAKWUwrcpgLskQanJ9el95m0ONqsiQfPGHTit8+XS8MtxeEugP4sAtRKgUirC+DAF0BXhiX+Xnn0nteQjFCqKXCWv5hgP3Ohk2zoCoJRS+LILQPQwDwQCXHq2rvyPVV06nEfTRu2k4TGQAOguAKVUhDGxPdmpEQDR4r+uJ5xP04ZtHWpSRZpAIMDFZ90uDe8JiLOFcJxMAOIxaheHETCz2EYppTwRL5+adCIB6IrwQa5z/7Gv9xm3EgiIX8dXO9WukwlAGkY962OKT0gy8z9UKaU84fEugCskQQk1Ezm9a18HmlORrF6dJnRqf7Y0/DKn2nU6AQhLv/6VUpGoRkJtBN8wYIx02t1CLVr63bPT5dROdLrwoIpE53S/ThyKUR3QNifrAGgZYKVU9ArEEZ+QRGV5qSQ6Dci32FI6cIYk8MxuV1lswjlrpo+iZmLs79w6UJzna/tnnnIVb304UHIseQJG6egv7bbpeQJgYp5NKaU8FZ+QLE0A0rGeAPQCwtaADQTi6HZSb4tNOCdr2TS/u1At1Es/jjbNu7Jp+wpJ+Hk4kAA4OQWgOwCUUlHNxImAdsble0mCOrTqQZ3UhjaaUdGmR6dLpaHiBQPH4nkCoFMASqlIZaJGiZ2FgGdJgrqddJGNJlQ0MjHi0w2wvaBORwCUUuogE1VKrSYA8Rh7ucPq2FaUJ6gY0qFVD+lpjzWBHnbb83wXgJ4EqJSKVB6UA26PoF5KIBDHiW1Ot9iEila1EmrT7vhu0vAudtvzYQRAtwEqpSKTB7UAOkuCWjQ5keQkJ88cUtHCROIn+i0di/cJgK4BUEpFKA9OBBR9tbVp3tXi7VW0a91c/F6PvhEAPQlQKRWpPDgQ6ARJUMumokMCVQxq1ayTNFT0WzoWHQFQSqmDPFgD0EoUJH8JqBjToklHabn8ukAdO235UAhIEwClVGTy4ETA1pKgJg3bWLy981qc1Z+aSbbeM1Fh28LxVOwv8LsbJNRMpH6dJuTu3SEJbwWIKgf9HicTAOEuAE0AlFKRyeU6AMlAg3BBgUCARvVbWLi9Oxp0uIDEOs387obrdmR8GBEJAEDj+q09SQC0DoBSSh3k8hRAY0lQndRGJNRMsnB7FSuOa9BKHGqnHV0DoJRSB7k8BSCq61s33dYzXcWAOmmNpKFhR5SOxakEIIDweEKdAlBKRSoTh5VZ2QVQX3Tj5HoWbq1iSVqy6KcCwt/U0TiVAKRglLg8dmM1ahGId3LZgVJKOcfEYUBWRgDqSoJS5Q9/FaNS5UmgrWzRqQRA5/+VUlHPxBRlKuafn4mSoKRE0WCqimG1k8QDTLYWi3iaAOjwv1IqkgXi4omrUUsSGocx8mmGKAGoKWtfxTATvwHRyUFH41QCIEpXdAGgUirSubgTQHbMm+w0OBXDTCQAtrJFnQJQSqnDuLgTIOw6KYC4OFGYimHxceK1crYW1ekUgFJKHcbFEYAKSVBlpShMxbCKynJpqDjw9+gIgFJKHcbEiYBmtwKKHtZBTQCqvWDwgDQ0ehIAPQlQKRXpXBwBED3VyyvKTN5WxZoKeQIgDvw93o4AJNR2qDmllHKHi2sASiVBJfv3mbytijXFpeIzCUS/qaPRXQBKKXUYF0cA8iRBhcWiMBXDTPwG9thpR6cAlFLqMC6eCJgrCSoq0QSguiuU/wZs/Vicqssr+kPYOHsYG2cPc6hJpVSs2b5oItsXTfS7G1JmFwGKHtb5+7ItdEXFkvyCXdJQWwmApyMASikVQ8w+97KBqnBBRSX5ug6gmsvJ2yIN3WmnHU9HAJRSKoaYfe6VA7uAZuECd+dtpXXzLpY65bRti8ZXi/VbFfKFd67Lzt0iDd1spx1NAJRSyhorz73NCBKAHbs3RkwCkLvue7+7UK2UlBZQWCxaLhICttppy9NdAEopFUOsJABbREE7Vlm4tYoFW3aulobmAPvttKUJgFJKWWMlAVgjCdqyQ/wSUDFmc5b4v32m3bacSACSsHkkoVJKRSErCcDPkqBft6+0cGsVCzZniX4iALaHiZxIAHT+XylVHVkZ+RQ93XPytpK7d4eF26tot2bTQmmoOFM4Gk0AlFLKmhqA2frm2xEWBFr762LTHVLRragkn+3Za6XhtoeJNAFQSinrrDz/FkmCMjctsHBrFc3WbFpIKBSShBbjwAiAE9sARX8A5/Xswqyx/3SgOXvue/4Nxn4yw+9uKKV+x9C/3szgATf53Q069rubTdtF1djSMfb2m7EA6BcuaFnmbJO3VdEuI3OWNHQRELTbnmcjAGnJehKgUio6pKWIn1dWRgBEn/ZZOevZtedXC7dX0cpEAuDI8JATIwCihTDpqZoAKKWiQ1qKawcCAfyEMYQb9nS0pZnf0O/8v1powjkdr3iIWin1fO2DF9ZMH8mB4nzf2s/KXkd2rriwnyPVmTybAjDxB6WUUr5Kd3cE4AAwB7gyXOCPGVN9TwCan9qHlAYtfe2DFzbMGedrAjA/4xNpaCHCdSTheDYFkK4JgFIqSph4XlktgjZTEpS5cQF5BbbOe1FRwkQCMBuocKJNDxMAnQJQSkWHtFRXpwAApmPUcj+mUKiK+RlTLTahosXWnZls3SkqEgng2Cp2zxKAVE0AlFJRwuUpADAOcflJEjh74SSLTahoMWvBJGloBfC5U+06kQDIFgHqFIBSKkqY2LVkpw7Kx5KgLTtWs27zEhvNqEgWDJbz/ZLJ0vBvgTyn2tYpAKWUOoIHUwAAUxBMAwDMmD/ORjMqki1Y/hn7ivZIw0VJo5R3dQDkf1BKKeUrEx8sdk5C3Qb8IAmcu+RD8vdl22hKRaov5vxLGloCfOpk2zoCoJRSRzAxZWm3FPpYSVBF8ADT5r5lsykVaX5e94OZ6Z2PMLYAOka3ASql1BFcrgR4uKkI53Snz3uH/WVFNptTkeSTWcPNhDs+D+TdLgAtBayUihLp3qwBAKMo0ERJYFFJPp9/97rN5lSk+GXTIjOlf3/GoeI/h7ObACQAiWEbiQuQUjtsmFJKRQSPdgEcMhphYZfPvh1FceleB5pUfnvvy6fNhL/qRh/sJgDig4ACgYDNppRSyhsunwVwpCyMHQFhlezfx5SZrzjQpPLT8l++Y+W6udLwHcCHbvTDbgIgWgGr5wAopaJJclItasTHS0JrHfxn16sItwR+MedfekpgFKusCjJ2yiNmLhkNlLvRF09GAPQkQKVUNAkEAqQmJ0nDnRgFWAZ8JQmsCB5g/NTHHGhS+WH6D++YKfu7G3Bt+4c3CYCOACilooyJkUs7tQAONwSokgQuWvEli1Z86VCzyiv5+7J576tnzFzyMsbR0a7wZg2AJgBKVWuhkGh0O6LWCnlwHsCRVmFsCxR5+6MHKS1zdFu4ctmbkx+gpLRAGr4TF7/+AWrYvD7qigDVTU8Rxe3O0apbSjklJ3uXKK5enVSXeyLn4VbAw/0DuApjh9Ux5e7dwfipT3D/zW9Ya0mYbK2ZPoqaibLnZjQrK5aV2A9gLUn9MWMqi1Z8YeaSJ4H9lhoT8iQBMFFUw3VNG9YXxU2d8hEDH36UWom6fVEpO/Lz85gxTTZcLf379IKJ2iVOJgAbMRZ9DZIEz5w/jtM6X87pXfqabig1uZ4oLmvZNNP3jmVpKeZ/o3vyt/Ov/9xn5pLlwCTTDZlU7aYAWjRpJIrbuGEdjzx0HwfKylzukVKxq7BwH/f+5U5yc2WHnbQlNlZhAAANvElEQVRo0tDlHsn5MAVwyHOAbMgEGP3ePZbOCWhQp5npa6q7pMRUkpPM/ecOVlbw0rhbKCrJl14SAgYiXA9ih90RAOFRwP6PAOzJL2D91p3kFxZRo0Y8wWBl2Gv+894kvp01k+7de5KS5tQ6H6Wqh71781m6ZDEFe2WFa9JSktmclc3+A+Wc1KYFdXw+QMzD8wCOVAQ8CrwnCd5XtIfhE27nuYFfEx8nf6R3PfECFiz/zGIXq6duJ11k+prxUx9j7a+LzVzyLjDfdEMWeDQF4M8fcnlFkAmfzmTy13NZsnodVVWyhUiH252TzYzpot05SikbCotL+OMjLwJQIz6ec3p04tZ+F3HTFRcQF+f94sA0+fZlN74O3gduAPpJgleum8ukz4bQ/9qXxA2cecpVjJ0yiIrgAYtdrH7O6X6dqfglq6bz1fdvmrkkFyP580TM1gGYtSCDLtfcw8AX32bxz2stvfyVUv4IVlby/X9X8uchIzjtj/fz0+r1nvfBxxGAQ+7HxBawz74dxbyl8uPi66UfR5/zBljpV7XUullnzul+rTg+K2c9wyfeKd4Bc9D9gGy+zAGelQL20sh3P+Xq+59hc5au5Fcq2q1av4Xe/R9n8vS5nrbrcTng37MVEJeMC4VCjHz3btZsWihu4E99h9C8cQcrfatWEmom8sCtbxMIyF6Z+QW7GPpaXzNb/gA+waWSv0cTc4sA35z8FY+PnEBllevrJ5RSHik7UM6dg1/lk1meTI0CkJbiaSXAoxkDiCv+lFeU8dxb17Nz90ZRfHJSOkP/9in10ptY7V/MqxFfk4fvGE+HVj1E8SWlBTz5el9y8raaaSYL8Hw4xpOzALyqBDg/YzWDhjt+ZLJSKgKEQiEGPD2a9VuyPGkvAqYADumPiV0BhcW5/GPkpeIXULPG7Rn9xCI6tj3Lav9iVr30Jrzw4Azx3H95xX6eefNatuxYbaaZKuB2QLxNwCkxswagqirEoOFjCVaGX92vlIpOxaVlPD5ygidt+VAK+GhygesRHhkMsGdvFkNGXS7eHlivThOGPTKHx+56nxPbnCEe6o5VTRq24barnmHss5l0an+O6JqqqkqGT7iTzI0/mm3uaWCO2YucYHdpbREQtkRUzvyPXN/S89m3C/5/BbFSKrb9+P4IenZyd+569YYtdL9eVLzlF6Cjq50x/B0YbuaC5o078NzAr2lUr4WphvYW5rB1RyZ5+3ZSUVE9aqHExdegTmojmjZqZ3pdREXwAMMn3smPGeJKzodMw6j86MuctZ1tgPFA2Le6yVO1LJvyjXdzg0opf30ya77rCYBPpYCPZQTQE7hRekFWznoeGXYezz0wjZZNTxY3VDetMXXTGlvoYvVTWlbI829dz8p1c81euhG4FZ9e/mBvCiANwQhCSu1E4uPcHU6qqgoxe+EyV9tQSkWOGfN/cr0NEyXMvUoAQsCdwCIzF+UV7GTQ8AutDE2rMAoKd/P4iEusvPzzgb6AqW0CTrMzAiD60Zuop21Z7t59FJaUimI7ndKddh1OChtXUVFO7u4cSktKKCsrpaJcPP2mlAISatUiMTGR5NQ0GjRsRHx8+MfN6pUZbFz3S9i4zVnZhEIhV08PTK1dm7i4gKSGSDLGszToWmd+sx+4EiMJaCe9qKS0gMGjrmBQ/3fp1e0a1zpXneTkbmHIa33EOy4OU46xpmOd870yx/UEwIsdALtyZYsnmx3fkjEffE6cyyMSSilrysr20+fsUygtOXb9m/KKILkFhTSs697Hd1xcgOSkRIpKRAeypeHdKu5cjAqB84EG0osqggd4eewt3HHNC1zTe2BEHb0cbVaum8uwcbdQUGS6Zk8VcAc+Lfo7kp03YcQcBSyt8lczIUFf/kpFsMREE+uFzFVYsyQCigEdzVqgNyA7aOGgyqog46c+xrNv/oGiEtnxt+o3oVCIT74ZzpDRV1h5+YeAe4HJzvfMGrtrAMIHeXCgR0pt2ZG9ubtzXO6JUsqO0pLisF//h3gxvejjiYASK4ErMFEu+JAlq6Zz//OnmaoaWN0VFO1h6Ot9mfjZYKqqLG03fxx42+Fu2RITIwD10mXbcIuLCsUPF6WU93Zny+rdJCclklgrweXemJrC9Ou40MVAH6DQ7IV79mbxxIhLmDprhNl69dXOil/mcO9zp7JszbdWb/E4MMzBLjnCgwTA/RGA+nVSqZ+eKopduniBy71RSln10yLZdt52LZq63BODiRFMP0YADpkHXIixNsCUYGUFEz59gode6sWGrRnO9yzKlZYVMubjhxnyWh8KCndbuUUIeBB42dmeOcP1BCDVgxEAgBNaHy+Kmz/nG5d7opSyav6cWaK4E1o3d7knhgifAjhcBnARJkoGH27D1gz+/vK5jJ0yiNIy04MJMWnh8s+55+mufDnnDUIhS1v1KzAW/I12tGMOiokpAIAzTwm/tQ+MB4xOAygVeXZn72L5T7It7med4kXhPVMnmfqdAAD8jFEoaIWViyurgnz+3WsMeKoz3y1+39meRZGs7HUMfb0fL4y5kbyCnVZvU4xR4e/fzvXMea4vAvTqIKDze3YRxe0r2MsHEyJqHYZSCnjntWEEg7Kt9Bec3tXl3hgieBfA0ewAzgcsT1bn78tmxKT+PD7iYjI3Vp8p09352xj93j387dlTyciUjUQdxTbgLGCGMz1zj+sjAF4dBXxuj87i8wYmT3pHdwQoFUE2rF3DjC9lddTbt2zGicIpP7tMHGTm1yLA37MPuBwYaecmq9bP49HhF/Lka31jerdATt5W3pz8AHcPPZlZCyZSWWWrntNcjFGYVY50zmXuTwF4cBIgQGKtBK69+GxR7P7SEp4YeDcV5eUu90opFU5JcRFPPXIvVcKTPG/ue4HLPfpNBB0JbFYQeBi4CSixc6Nla2Yz6JUL+Puw81i4/HOrW+AizsZty3h53K3c/WRHvv5hDMGgrfdBCHgVuBiwtFrQDzGxC+CQ/tddJo5dvSKDl556VLe/KOWjYDDI4AcHsHnTelF8Qs0a3HZlb5d79ZsIPA/ArA+B0zBqBtiy9tfFvDDmRv48uAPvf/Use/K32++dx/aXFTFz/jgeeqkXA/95JvOWfmz3ix8gD7gWeARvykE7xu5pgGHVTpIV6XFC947tueiMbny3eLkofvrnUygr28+TL44yV4FMKWVb4b4CBj84gKWL5YfU3NrvIpo1Fle/tS2ltvi5YOdZ6rY1wOnAixhb0mzVAN6zN4vJX7/Ah9NfpFP7szm3x/X06nYN6akNneir48orysjI/IZ5S6ewZNV0yg7YGhA50nfA7RhrL6KOnR+t6P/F7D1elcc2DP3bzcz57wrxl/2cmdPYsW0rQ18eTZt2J7jcO6UUGCNwTz92Pzu2bRVfk1grgUf73+Bir/7Xzt3icrmRvrXoAMaUwNfAO0AbuzcMhapYtX4eq9bP460PH6Rj27PofvIldD/5Eto07+rrWQN78reTkfkNSzNnsWLtHPaXFTndRDEwBHgdH4/ztcvOf6FPgbDHSvU+sxtfv/WcjWbM+8tTo3j3C3OLYOPi4+lz9Q30v/chGjdp5lLPlKretmzawDuvvcLc2dNNT78N/evNDB5wk0s9+18VwSBn3PQgqzdskYSPxvi6jga1gWcx+isayTUrNbk+HdueQcd2vejQsgetm3cmNbmeG01RXrGfrTvXsHHbMtZsXETmpgXk5G5xpa2DZgL3APLsNULZSQCexPgRhfWHi3sx+C83cVLbFsR7cBhPbkEh3a+7j2zhKYGHi4uLo2PnUzi392V06noq9Rs2ptFxTXSKQCmTSkuK2Z29i9w9OSz/aTHz53zDhrVrLN3r5HYtWfjBSE/K/1YEg6xct5nBoycxd4l46vwO4F33euWKUzESF9nqaZvq12lKiyYncVyDNjSu35KG9Y6nTlpj0lPqk5Jcj6RayQQCcSQnGcspyg6UEKwspyJYTmFxHkUleRSV5LM7fzs5uZvJzt3Cjpz17NyzyauFiduAQcDHXjTmBTsJwNkYx1EqpVR114ro/SLsh5EItPa7IxGqFGOo/3kif6rHFDsJQAJGRtTYob4opVQ0+hnwpjKRexIwRjGeBpr42pPIUQ5MAp4BLJcEjGR25n8qMbYRXuxQX5RSKho9CKz2uxM2VWKcJ/A2RiGhzkCKrz3yTxkwDrge+ABwfAVhpLC7TDMV2ARE5v4PpZRy11qgE8YLNJYkAH8EHgVO9rkvXtmHsY7jZWL0i/9ITuzT6I2xKtKV1aRKKRWhDgC9ML6cY1UAY5T3LozDbdxfhem9hRhf/B9hzPdXG05t1HwWY1eAUkpVFwMw9tRXF42AWzFGBnr43Be7tgFTgIlAps998Y1TCUAAGAo85eA9lVIqEgWB+4AxfnfER22BGzFGBXpgr6y8VzYB0zC28S3CqN9frTn9sr4ZY7tEXYfvq5RSkWAXxmp5W+fFxpgGwCXAZRjbwyNlO2E+sACYjTFNvcHf7kQeN77W62NMB9wD1HLh/kop5bVijNPeXsHm6XrVQFOMRKAnxvbIzsBxLrdZiDGU/zPGmowFwC/oV/4xuTlcnw5cAVwJnIjxA3D7R6CUUnZVATkYB7ysBr7A+OKvVgvEHNYAaI8xOtAKaImxpqD+Yf8SMKYSDp2sWIqx0LIK42s+77B/24DNwBbgV4wiTPqyN+n/APvEh2xUm0mnAAAAAElFTkSuQmCC;" vertex="1" parent="1">
          <mxGeometry x="80" y="280" width="100" height="100" as="geometry" />
        </mxCell>
        <mxCell id="Q-PvTwAetlPs6teonqhd-4" value="Cloud Provider OpenAPI" style="ellipse;shape=cloud;whiteSpace=wrap;html=1;fillColor=#dae8fc;strokeColor=#6c8ebf;" vertex="1" parent="1">
          <mxGeometry x="280" y="40" width="220" height="120" as="geometry" />
        </mxCell>
      </root>
    </mxGraphModel>
  </diagram>
</mxfile>
